<svg width="20" height="19" viewBox="0 0 20 19" fill="none" xmlns="http://www.w3.org/2000/svg">
<path opacity="0.4" d="M20 13.6273C20 16.4173 17.76 18.6773 14.97 18.6873L14.96 18.6873L5.05 18.6873C2.27 18.6873 1.28009e-09 16.4373 9.21266e-10 13.6473L9.1998e-10 13.6373C9.1998e-10 13.6373 0.006 9.21126 0.014 6.98526C0.015 6.56726 0.495 6.33326 0.822 6.59326C3.198 8.47826 7.447 11.9153 7.5 11.9603C8.21 12.5293 9.11 12.8503 10.03 12.8503C10.95 12.8503 11.85 12.5293 12.56 11.9493C12.613 11.9143 16.767 8.58026 19.179 6.66426C19.507 6.40326 19.989 6.63726 19.99 7.05426C20 9.26326 20 13.6273 20 13.6273Z" fill="white"/>
<path d="M19.4761 3.36077C18.6101 1.72877 16.9061 0.686768 15.0301 0.686768L5.05013 0.686768C3.17413 0.686768 1.47013 1.72877 0.604128 3.36077C0.410128 3.72577 0.502128 4.18077 0.825128 4.43877L8.25013 10.3778C8.77013 10.7978 9.40013 11.0068 10.0301 11.0068C10.0341 11.0068 10.0371 11.0068 10.0401 11.0068C10.0431 11.0068 10.0471 11.0068 10.0501 11.0068C10.6801 11.0068 11.3101 10.7978 11.8301 10.3778L19.2551 4.43877C19.5781 4.18077 19.6701 3.72577 19.4761 3.36077Z" fill="white"/>
</svg>
