<svg width="15" height="13" viewBox="0 0 15 13" fill="none" xmlns="http://www.w3.org/2000/svg">
<path d="M14.4062 0.65625H0.59375C0.299902 0.65625 0.0625 0.893652 0.0625 1.1875V3.84375H14.9375V1.1875C14.9375 0.893652 14.7001 0.65625 14.4062 0.65625ZM0.0625 11.8125C0.0625 12.1063 0.299902 12.3438 0.59375 12.3438H14.4062C14.7001 12.3438 14.9375 12.1063 14.9375 11.8125V5.30469H0.0625V11.8125ZM9.6748 8.75781C9.6748 8.68477 9.73457 8.625 9.80762 8.625H12.5469C12.6199 8.625 12.6797 8.68477 12.6797 8.75781V9.95312C12.6797 10.0262 12.6199 10.0859 12.5469 10.0859H9.80762C9.73457 10.0859 9.6748 10.0262 9.6748 9.95312V8.75781Z" fill="white"/>
</svg>
