<svg width="19" height="19" viewBox="0 0 19 19" fill="none" xmlns="http://www.w3.org/2000/svg">
<path d="M13.578 1.84361C14.5924 1.84664 15.5644 2.25096 16.2817 2.96827C16.999 3.68558 17.4034 4.65759 17.4064 5.67201V13.328C17.4034 14.3424 16.999 15.3144 16.2817 16.0317C15.5644 16.749 14.5924 17.1534 13.578 17.1564H5.92201C4.90759 17.1534 3.93558 16.749 3.21827 16.0317C2.50096 15.3144 2.09664 14.3424 2.09361 13.328V5.67201C2.09664 4.65759 2.50096 3.68558 3.21827 2.96827C3.93558 2.25096 4.90759 1.84664 5.92201 1.84361H13.578ZM13.578 0.3125H5.92201C2.97422 0.3125 0.5625 2.72422 0.5625 5.67201V13.328C0.5625 16.2758 2.97422 18.6875 5.92201 18.6875H13.578C16.5258 18.6875 18.9375 16.2758 18.9375 13.328V5.67201C18.9375 2.72422 16.5258 0.3125 13.578 0.3125Z" fill="black"/>
</svg>
