<svg width="18" height="21" viewBox="0 0 18 21" fill="none" xmlns="http://www.w3.org/2000/svg">
<path d="M15.6562 4.86691C15.5233 4.79823 15.394 4.72294 15.2686 4.64133C14.9041 4.40034 14.5699 4.11639 14.2732 3.79559C13.5308 2.94615 13.2535 2.08441 13.1514 1.48107H13.1555C13.0702 0.980273 13.1054 0.65625 13.1108 0.65625H9.72945V13.7312C9.72945 13.9068 9.72945 14.0803 9.72207 14.2517C9.72207 14.273 9.72002 14.2927 9.71879 14.3157C9.71879 14.3251 9.71879 14.335 9.71674 14.3448V14.3522C9.68109 14.8213 9.53071 15.2745 9.27882 15.6719C9.02692 16.0692 8.68123 16.3986 8.27217 16.631C7.84583 16.8736 7.36363 17.0008 6.87312 17.0002C5.29771 17.0002 4.0209 15.7155 4.0209 14.1291C4.0209 12.5426 5.29771 11.258 6.87312 11.258C7.17134 11.2577 7.46772 11.3046 7.75127 11.397L7.75537 7.95416C6.8946 7.84297 6.02013 7.91138 5.18712 8.15507C4.35411 8.39876 3.58065 8.81244 2.91552 9.37002C2.33272 9.8764 1.84275 10.4806 1.46767 11.1554C1.32494 11.4015 0.786403 12.3904 0.721188 13.9954C0.680173 14.9063 0.953747 15.8501 1.08418 16.2401V16.2483C1.16621 16.478 1.48408 17.2618 2.00211 17.9226C2.41982 18.4526 2.91335 18.9182 3.46677 19.3044V19.2962L3.47498 19.3044C5.11191 20.4168 6.92685 20.3438 6.92685 20.3438C7.24103 20.331 8.29349 20.3438 9.48869 19.7773C10.8143 19.1494 11.569 18.2138 11.569 18.2138C12.0511 17.6548 12.4345 17.0177 12.7027 16.33C13.0086 15.5256 13.1108 14.561 13.1108 14.1754V7.23885C13.1518 7.26346 13.6981 7.6248 13.6981 7.6248C13.6981 7.6248 14.4852 8.1293 15.7132 8.45783C16.5942 8.69162 17.7812 8.74084 17.7812 8.74084V5.38412C17.3653 5.42924 16.5208 5.29799 15.6562 4.86691Z" fill="black"/>
</svg>
