<svg width="22" height="21" viewBox="0 0 22 21" fill="none" xmlns="http://www.w3.org/2000/svg">
<path d="M14.578 2.84361C15.5924 2.84664 16.5644 3.25096 17.2817 3.96827C17.999 4.68558 18.4034 5.65759 18.4064 6.67201V14.328C18.4034 15.3424 17.999 16.3144 17.2817 17.0317C16.5644 17.749 15.5924 18.1534 14.578 18.1564H6.92201C5.90759 18.1534 4.93558 17.749 4.21827 17.0317C3.50096 16.3144 3.09664 15.3424 3.09361 14.328V6.67201C3.09664 5.65759 3.50096 4.68558 4.21827 3.96827C4.93558 3.25096 5.90759 2.84664 6.92201 2.84361H14.578ZM14.578 1.3125H6.92201C3.97422 1.3125 1.5625 3.72422 1.5625 6.67201V14.328C1.5625 17.2758 3.97422 19.6875 6.92201 19.6875H14.578C17.5258 19.6875 19.9375 17.2758 19.9375 14.328V6.67201C19.9375 3.72422 17.5258 1.3125 14.578 1.3125Z" fill="black"/>
<path d="M15.7264 6.67212C15.4993 6.67212 15.2773 6.60477 15.0884 6.47857C14.8995 6.35238 14.7523 6.17302 14.6654 5.96317C14.5785 5.75332 14.5557 5.52241 14.6001 5.29963C14.6444 5.07686 14.7537 4.87223 14.9144 4.71161C15.075 4.551 15.2796 4.44162 15.5024 4.39731C15.7252 4.353 15.9561 4.37574 16.1659 4.46266C16.3758 4.54959 16.5551 4.69678 16.6813 4.88564C16.8075 5.0745 16.8749 5.29654 16.8749 5.52368C16.8752 5.67459 16.8457 5.82407 16.7881 5.96355C16.7305 6.10303 16.6459 6.22977 16.5392 6.33647C16.4325 6.44318 16.3058 6.52776 16.1663 6.58536C16.0268 6.64296 15.8773 6.67244 15.7264 6.67212ZM10.75 7.43747C11.3557 7.43747 11.9479 7.61709 12.4515 7.95362C12.9552 8.29015 13.3477 8.76846 13.5795 9.32809C13.8113 9.88771 13.872 10.5035 13.7538 11.0976C13.6356 11.6917 13.3439 12.2374 12.9156 12.6657C12.4873 13.094 11.9416 13.3857 11.3475 13.5039C10.7534 13.6221 10.1376 13.5614 9.57798 13.3296C9.01836 13.0978 8.54004 12.7053 8.20351 12.2016C7.86699 11.698 7.68737 11.1058 7.68737 10.5001C7.68823 9.68811 8.01118 8.90962 8.58535 8.33546C9.15952 7.76129 9.93801 7.43834 10.75 7.43747ZM10.75 5.90636C9.84144 5.90636 8.95329 6.17578 8.19785 6.68054C7.44241 7.18531 6.85362 7.90276 6.50593 8.74216C6.15824 9.58155 6.06727 10.5052 6.24452 11.3963C6.42177 12.2874 6.85928 13.1059 7.50173 13.7484C8.14418 14.3908 8.96271 14.8283 9.85381 15.0056C10.7449 15.1828 11.6686 15.0919 12.508 14.7442C13.3474 14.3965 14.0648 13.8077 14.5696 13.0523C15.0743 12.2968 15.3438 11.4087 15.3438 10.5001C15.3438 9.28177 14.8598 8.11333 13.9983 7.25184C13.1368 6.39034 11.9683 5.90636 10.75 5.90636Z" fill="black"/>
</svg>
