<svg width="56" height="16" viewBox="0 0 56 16" fill="none" xmlns="http://www.w3.org/2000/svg">
<path d="M0.7 12C0.7 11.3733 0.886667 10.8333 1.26 10.38C1.63333 9.91333 2.14667 9.55333 2.8 9.3C3.45333 9.03333 4.20667 8.9 5.06 8.9C5.59333 8.9 6.14667 8.94667 6.72 9.04C7.29333 9.13333 7.80667 9.26 8.26 9.42V8.44C8.26 7.48 7.98 6.71333 7.42 6.14C6.87333 5.56667 6.11333 5.28 5.14 5.28C4.62 5.28 4.08 5.38667 3.52 5.6C2.96 5.81333 2.38667 6.12 1.8 6.52L1.38 5.8C2.06 5.34667 2.71333 5.00667 3.34 4.78C3.98 4.54 4.61333 4.42 5.24 4.42C6.48 4.42 7.46 4.78667 8.18 5.52C8.9 6.25333 9.26 7.25333 9.26 8.52V13.68C9.26 13.84 9.29333 13.96 9.36 14.04C9.44 14.12 9.55333 14.1667 9.7 14.18V15C9.58 15.0133 9.48 15.02 9.4 15.02C9.32 15.02 9.25333 15.02 9.2 15.02C8.94667 14.98 8.74667 14.8733 8.6 14.7C8.46667 14.5267 8.39333 14.3333 8.38 14.12V13.3C7.9 13.9 7.28 14.3667 6.52 14.7C5.77333 15.0333 4.98667 15.2 4.16 15.2C3.50667 15.2 2.91333 15.06 2.38 14.78C1.86 14.5 1.44667 14.12 1.14 13.64C0.846667 13.1467 0.7 12.6 0.7 12ZM7.86 12.86C7.99333 12.6867 8.09333 12.52 8.16 12.36C8.22667 12.2 8.26 12.0533 8.26 11.92V10.2C7.78 10.0133 7.28 9.87333 6.76 9.78C6.24 9.68667 5.70667 9.64 5.16 9.64C4.12 9.64 3.27333 9.84667 2.62 10.26C1.98 10.6733 1.66 11.2333 1.66 11.94C1.66 12.38 1.77333 12.7867 2 13.16C2.22667 13.5333 2.54 13.8333 2.94 14.06C3.35333 14.2867 3.82667 14.4 4.36 14.4C5.10667 14.4 5.79333 14.26 6.42 13.98C7.06 13.6867 7.54 13.3133 7.86 12.86ZM11.5822 9.82C11.5822 8.84667 11.7889 7.95333 12.2022 7.14C12.6155 6.32667 13.1822 5.67333 13.9022 5.18C14.6222 4.67333 15.4422 4.42 16.3622 4.42C17.2689 4.42 18.0689 4.66 18.7622 5.14C19.4689 5.62 20.0222 6.19333 20.4222 6.86V0.4H21.4222V13.68C21.4222 13.84 21.4555 13.96 21.5222 14.04C21.6022 14.12 21.7089 14.1667 21.8422 14.18V15C21.6289 15.0267 21.4689 15.0333 21.3622 15.02C21.1222 14.98 20.9222 14.8667 20.7622 14.68C20.6022 14.4933 20.5222 14.2933 20.5222 14.08V12.92C20.0955 13.6133 19.5222 14.1667 18.8022 14.58C18.0822 14.9933 17.3422 15.2 16.5822 15.2C15.8622 15.2 15.1955 15.0533 14.5822 14.76C13.9689 14.4533 13.4355 14.0467 12.9822 13.54C12.5422 13.0333 12.1955 12.46 11.9422 11.82C11.7022 11.18 11.5822 10.5133 11.5822 9.82ZM20.4222 11.5V8.08C20.2355 7.57333 19.9355 7.11333 19.5222 6.7C19.1089 6.27333 18.6422 5.94 18.1222 5.7C17.6022 5.44667 17.0889 5.32 16.5822 5.32C15.9822 5.32 15.4355 5.44667 14.9422 5.7C14.4622 5.95333 14.0422 6.29333 13.6822 6.72C13.3355 7.14667 13.0689 7.63333 12.8822 8.18C12.6955 8.71333 12.6022 9.26667 12.6022 9.84C12.6022 10.4267 12.7089 10.9933 12.9222 11.54C13.1355 12.0733 13.4289 12.5533 13.8022 12.98C14.1889 13.3933 14.6289 13.72 15.1222 13.96C15.6289 14.1867 16.1755 14.3 16.7622 14.3C17.1222 14.3 17.5022 14.2267 17.9022 14.08C18.3155 13.9333 18.7022 13.7333 19.0622 13.48C19.4355 13.2133 19.7422 12.9133 19.9822 12.58C20.2355 12.2333 20.3822 11.8733 20.4222 11.5ZM39.8869 15H38.8869V9.2C38.8869 7.88 38.6802 6.90667 38.2669 6.28C37.8669 5.65333 37.2469 5.34 36.4069 5.34C35.5535 5.34 34.7935 5.64667 34.1269 6.26C33.4735 6.86 33.0135 7.63333 32.7469 8.58V15H31.7469V9.2C31.7469 7.86667 31.5469 6.89333 31.1469 6.28C30.7469 5.65333 30.1269 5.34 29.2869 5.34C28.4335 5.34 27.6735 5.64 27.0069 6.24C26.3535 6.82667 25.8869 7.6 25.6069 8.56V15H24.6069V4.6H25.5469V7.08C25.9869 6.22667 26.5535 5.57333 27.2469 5.12C27.9402 4.65333 28.7002 4.42 29.5269 4.42C30.3935 4.42 31.1002 4.68 31.6469 5.2C32.2069 5.70667 32.5402 6.38667 32.6469 7.24C33.1402 6.30667 33.7269 5.60667 34.4069 5.14C35.0869 4.66 35.8602 4.42 36.7269 4.42C37.3002 4.42 37.7802 4.52667 38.1669 4.74C38.5669 4.94 38.8935 5.24 39.1469 5.64C39.4135 6.02667 39.6002 6.50667 39.7069 7.08C39.8269 7.65333 39.8869 8.3 39.8869 9.02V15ZM42.9077 15V4.6H43.9077V15H42.9077ZM42.9077 2.24V0.4H43.9077V2.24H42.9077ZM55.5483 15H54.5483V9.2C54.5483 7.86667 54.3549 6.89333 53.9683 6.28C53.5949 5.65333 52.9949 5.34 52.1683 5.34C51.5816 5.34 51.0016 5.48 50.4283 5.76C49.8683 6.04 49.3749 6.42667 48.9483 6.92C48.5349 7.4 48.2349 7.94667 48.0483 8.56V15H47.0483V4.6H47.9883V7.08C48.2683 6.54667 48.6416 6.08667 49.1083 5.7C49.5749 5.3 50.0949 4.98667 50.6683 4.76C51.2416 4.53333 51.8349 4.42 52.4483 4.42C53.0216 4.42 53.5016 4.52667 53.8883 4.74C54.2883 4.94 54.6083 5.23333 54.8483 5.62C55.1016 6.00667 55.2816 6.48667 55.3883 7.06C55.4949 7.63333 55.5483 8.28667 55.5483 9.02V15Z" fill="white"/>
</svg>
