<svg width="22" height="18" viewBox="0 0 23 24" fill="none" xmlns="http://www.w3.org/2000/svg">
<g clip-path="url(#clip0_799_334)">
<path fill-rule="evenodd" clip-rule="evenodd" d="M1.43255 12.6766H21.4879C22.2787 12.6766 22.9205 13.3184 22.9205 14.1091V20.5555C22.9205 21.347 22.2787 21.988 21.4879 21.988H1.43255C0.641789 21.9879 0 21.3469 0 20.5554V14.109C0 13.3182 0.641789 12.6766 1.43255 12.6766Z" fill="#BF392C"/>
<path fill-rule="evenodd" clip-rule="evenodd" d="M11.4603 1.93261C12.6464 1.93261 13.6091 2.5744 13.6091 3.36516H15.0417C15.0416 1.78291 13.4386 0.500061 11.4603 0.500061C9.48195 0.500061 7.87891 1.78291 7.87891 3.36508H9.31145C9.31145 2.57432 10.2741 1.93261 11.4603 1.93261Z" fill="#324D5B"/>
<path fill-rule="evenodd" clip-rule="evenodd" d="M6.44634 3.36511H16.474C18.847 3.36511 20.7716 5.28975 20.7716 7.66268V21.9879C20.7716 22.7794 20.1298 23.4205 19.339 23.4205H3.58123C2.79047 23.4205 2.14868 22.7794 2.14868 21.9879V7.66277C2.14876 5.28975 4.07258 3.36511 6.44634 3.36511Z" fill="#E2574C"/>
<path fill-rule="evenodd" clip-rule="evenodd" d="M4.29763 3.36511H18.6229C20.2051 3.36511 21.4879 4.64796 21.4879 6.23013V9.09515C21.4879 10.6774 20.205 11.9602 18.6229 11.9602H4.29763C2.71538 11.9602 1.43262 10.6773 1.43262 9.09515V6.23021C1.43262 4.64796 2.71538 3.36511 4.29763 3.36511Z" fill="#BF392C"/>
<path fill-rule="evenodd" clip-rule="evenodd" d="M5.72998 18.4065C5.72998 18.4065 6.28223 19.8391 6.82661 19.8391C7.35668 19.8391 7.8788 18.4065 7.8788 18.4065V3.36511H5.72998V18.4065ZM15.0414 3.36511V18.4066C15.0414 18.4066 15.5936 19.8392 16.138 19.8392C16.6681 19.8392 17.1902 18.4066 17.1902 18.4066V3.36511H15.0414Z" fill="#EFC75E"/>
<path fill-rule="evenodd" clip-rule="evenodd" d="M5.01392 16.9741H8.5952V14.8253H5.01392V16.9741ZM14.3253 14.8253V16.9741H17.9066V14.8253H14.3253Z" fill="#E4E7E7"/>
</g>
<defs>
<clipPath id="clip0_799_334">
<rect width="23" height="23" fill="white" transform="translate(0 0.5)"/>
</clipPath>
</defs>
</svg>
