<svg width="22" height="18" viewBox="0 0 27 28" fill="none" xmlns="http://www.w3.org/2000/svg">
<g clip-path="url(#clip0_799_50)">
<path fill-rule="evenodd" clip-rule="evenodd" d="M13.4748 0.5C13.2277 0.5 13.0273 0.705029 13.0273 0.957879V2.33141H13.9221V0.957879C13.9222 0.705029 13.7218 0.5 13.4748 0.5Z" fill="#AFB9D2"/>
<path fill-rule="evenodd" clip-rule="evenodd" d="M9.00073 20.1878H17.9488V21.1035H9.00073V20.1878Z" fill="#959CB3"/>
<path fill-rule="evenodd" clip-rule="evenodd" d="M6.76933 26.7358L8.49313 18.3564H9.83535L8.11793 26.7048C8.07587 26.9094 7.89954 27.0557 7.69534 27.0557H7.02294C6.85827 27.0557 6.73542 26.9007 6.76933 26.7358Z" fill="#AFB9D2"/>
<path fill-rule="evenodd" clip-rule="evenodd" d="M20.18 26.7358L18.4562 18.3564H17.114L18.8314 26.7048C18.8735 26.9094 19.0498 27.0557 19.254 27.0557H19.9264C20.091 27.0557 20.2139 26.9007 20.18 26.7358Z" fill="#AFB9D2"/>
<path fill-rule="evenodd" clip-rule="evenodd" d="M26.0019 3.24717H0.947423C0.700347 3.24717 0.5 3.04214 0.5 2.78929V2.33141C0.5 2.07856 0.700347 1.87354 0.947423 1.87354H26.0019C26.249 1.87354 26.4494 2.07856 26.4494 2.33141V2.78929C26.4493 3.04214 26.249 3.24717 26.0019 3.24717Z" fill="#D7DEED"/>
<path fill-rule="evenodd" clip-rule="evenodd" d="M26.002 3.24713H0.94751V17.8986C0.94751 18.4043 1.3481 18.8143 1.84231 18.8143H25.1072C25.6014 18.8143 26.002 18.4043 26.002 17.8986V3.24713Z" fill="#EFF2FA"/>
<path fill-rule="evenodd" clip-rule="evenodd" d="M14.3693 16.525H12.5797C12.3327 16.525 12.1323 16.32 12.1323 16.0671V8.74145C12.1323 8.4886 12.3327 8.28357 12.5797 8.28357H14.3693C14.6164 8.28357 14.8168 8.4886 14.8168 8.74145V16.0671C14.8168 16.32 14.6164 16.525 14.3693 16.525Z" fill="#FFD782"/>
<path fill-rule="evenodd" clip-rule="evenodd" d="M14.3693 16.525H12.5797C12.3327 16.525 12.1323 16.32 12.1323 16.0672V11.0308C12.1323 10.7779 12.3327 10.5729 12.5797 10.5729H14.3693C14.6164 10.5729 14.8168 10.7779 14.8168 11.0308V16.0672C14.8168 16.32 14.6164 16.525 14.3693 16.525Z" fill="#FFC36E"/>
<path fill-rule="evenodd" clip-rule="evenodd" d="M10.3427 16.525H8.55314C8.30606 16.525 8.10571 16.32 8.10571 16.0672V11.0308C8.10571 10.7779 8.30606 10.5729 8.55314 10.5729H10.3427C10.5898 10.5729 10.7901 10.7779 10.7901 11.0308V16.0672C10.7901 16.32 10.5898 16.525 10.3427 16.525Z" fill="#FF6464"/>
<path fill-rule="evenodd" clip-rule="evenodd" d="M10.3427 16.525H8.55314C8.30606 16.525 8.10571 16.32 8.10571 16.0672V13.32C8.10571 13.0672 8.30606 12.8621 8.55314 12.8621H10.3427C10.5898 12.8621 10.7901 13.0672 10.7901 13.32V16.0672C10.7901 16.32 10.5898 16.525 10.3427 16.525Z" fill="#D2555A"/>
<path fill-rule="evenodd" clip-rule="evenodd" d="M6.31636 16.525H4.52677C4.27969 16.525 4.07935 16.32 4.07935 16.0672V13.32C4.07935 13.0672 4.27969 12.8621 4.52677 12.8621H6.31636C6.56344 12.8621 6.76378 13.0672 6.76378 13.32V16.0672C6.76373 16.32 6.56344 16.525 6.31636 16.525Z" fill="#00D2FF"/>
<path fill-rule="evenodd" clip-rule="evenodd" d="M6.31636 16.525H4.52677C4.27969 16.525 4.07935 16.32 4.07935 16.0671V15.1514C4.07935 14.8986 4.27969 14.6935 4.52677 14.6935H6.31636C6.56344 14.6935 6.76378 14.8986 6.76378 15.1514V16.0671C6.76373 16.32 6.56344 16.525 6.31636 16.525Z" fill="#18BDF6"/>
<path fill-rule="evenodd" clip-rule="evenodd" d="M18.3959 16.525H16.6064C16.3593 16.525 16.1589 16.32 16.1589 16.0672V11.0308C16.1589 10.7779 16.3593 10.5729 16.6064 10.5729H18.3959C18.643 10.5729 18.8434 10.7779 18.8434 11.0308V16.0672C18.8434 16.32 18.643 16.525 18.3959 16.525Z" fill="#C3E678"/>
<path fill-rule="evenodd" clip-rule="evenodd" d="M18.3959 16.525H16.6064C16.3593 16.525 16.1589 16.32 16.1589 16.0672V13.32C16.1589 13.0672 16.3593 12.8621 16.6064 12.8621H18.3959C18.643 12.8621 18.8434 13.0672 18.8434 13.32V16.0672C18.8434 16.32 18.643 16.525 18.3959 16.525Z" fill="#A5D76E"/>
<path fill-rule="evenodd" clip-rule="evenodd" d="M22.4228 16.525H20.6332C20.3861 16.525 20.1858 16.32 20.1858 16.0671V5.99426C20.1858 5.74141 20.3861 5.53638 20.6332 5.53638H22.4228C22.6699 5.53638 22.8702 5.74141 22.8702 5.99426V16.0671C22.8702 16.32 22.6699 16.525 22.4228 16.525Z" fill="#9BE6D2"/>
<path fill-rule="evenodd" clip-rule="evenodd" d="M22.4228 16.525H20.6332C20.3861 16.525 20.1858 16.32 20.1858 16.0671V8.28356C20.1858 8.03071 20.3861 7.82568 20.6332 7.82568H22.4228C22.6699 7.82568 22.8702 8.03071 22.8702 8.28356V16.0671C22.8702 16.32 22.6699 16.525 22.4228 16.525Z" fill="#78D2BE"/>
<path fill-rule="evenodd" clip-rule="evenodd" d="M23.7649 16.9828H3.18448C2.93741 16.9828 2.73706 16.7777 2.73706 16.5249C2.73706 16.272 2.93741 16.067 3.18448 16.067H23.765C24.0121 16.067 24.2124 16.272 24.2124 16.5249C24.2124 16.7778 24.0121 16.9828 23.7649 16.9828Z" fill="#AFB9D2"/>
</g>
<defs>
<clipPath id="clip0_799_50">
<rect width="26" height="27" fill="white" transform="translate(0.5 0.5)"/>
</clipPath>
</defs>
</svg>
