<svg width="22" height="18" viewBox="0 0 31 24" fill="none" xmlns="http://www.w3.org/2000/svg">
<g clip-path="url(#clip0_799_341)">
<path fill-rule="evenodd" clip-rule="evenodd" d="M3.3125 2.18677H27.6875V19.1591H3.3125V2.18677Z" fill="white"/>
<path fill-rule="evenodd" clip-rule="evenodd" d="M3.3125 2.18677H27.6875V6.42987H3.3125V2.18677Z" fill="#FF4F19"/>
<path fill-rule="evenodd" clip-rule="evenodd" d="M27.4023 0.0652466H3.5968C2.40611 0.0652466 1.4375 1.15871 1.4375 2.50277V21.8111C1.4375 22.1043 1.64715 22.3415 1.90625 22.3415H29.0937C29.3529 22.3415 29.5625 22.1043 29.5625 21.8111V2.50277C29.5625 1.15871 28.5934 0.0652466 27.4023 0.0652466ZM3.3125 18.6288V2.71718C3.3125 2.42427 3.52238 2.18679 3.78125 2.18679H27.2187C27.4776 2.18679 27.6875 2.42427 27.6875 2.71718V18.6288C27.6875 18.9217 27.4776 19.1592 27.2187 19.1592H3.78125C3.52238 19.1592 3.3125 18.9217 3.3125 18.6288Z" fill="#5C546A"/>
<path fill-rule="evenodd" clip-rule="evenodd" d="M30.0312 21.2807H0.96875C0.709649 21.2807 0.5 21.5179 0.5 21.8111C0.5 22.9822 1.34182 23.9347 2.37682 23.9347H28.6231C29.6581 23.9347 30.5 22.9822 30.5 21.8111C30.5 21.5179 30.2903 21.2807 30.0312 21.2807Z" fill="#B9BBC1"/>
<path fill-rule="evenodd" clip-rule="evenodd" d="M8.9375 4.83873H5.65625C5.39715 4.83873 5.1875 4.60151 5.1875 4.30834C5.1875 4.01517 5.39715 3.77795 5.65625 3.77795H8.9375C9.19659 3.77795 9.40626 4.01517 9.40626 4.30834C9.40626 4.60151 9.19659 4.83873 8.9375 4.83873Z" fill="#FFD200"/>
<path fill-rule="evenodd" clip-rule="evenodd" d="M17.375 4.83873H16.9063C16.6471 4.83873 16.4375 4.60151 16.4375 4.30834C16.4375 4.01517 16.6471 3.77795 16.9063 3.77795H17.375C17.6341 3.77795 17.8438 4.01517 17.8438 4.30834C17.8438 4.60151 17.6341 4.83873 17.375 4.83873Z" fill="white"/>
<path fill-rule="evenodd" clip-rule="evenodd" d="M19.7188 4.83873H19.25C18.9909 4.83873 18.7812 4.60151 18.7812 4.30834C18.7812 4.01517 18.9909 3.77795 19.25 3.77795H19.7188C19.9779 3.77795 20.1875 4.01517 20.1875 4.30834C20.1875 4.60151 19.9779 4.83873 19.7188 4.83873Z" fill="white"/>
<path fill-rule="evenodd" clip-rule="evenodd" d="M22.0625 4.83873H21.5938C21.3346 4.83873 21.125 4.60151 21.125 4.30834C21.125 4.01517 21.3346 3.77795 21.5938 3.77795H22.0625C22.3216 3.77795 22.5312 4.01517 22.5312 4.30834C22.5312 4.60151 22.3216 4.83873 22.0625 4.83873Z" fill="white"/>
<path fill-rule="evenodd" clip-rule="evenodd" d="M24.4063 4.83873H23.9375C23.6784 4.83873 23.4688 4.60151 23.4688 4.30834C23.4688 4.01517 23.6784 3.77795 23.9375 3.77795H24.4063C24.6654 3.77795 24.875 4.01517 24.875 4.30834C24.875 4.60151 24.6654 4.83873 24.4063 4.83873Z" fill="white"/>
<path fill-rule="evenodd" clip-rule="evenodd" d="M13.625 17.568H5.65625C5.39738 17.568 5.1875 17.3305 5.1875 17.0376V8.55144C5.1875 8.25854 5.39738 8.02106 5.65625 8.02106H13.625C13.8839 8.02106 14.0937 8.25854 14.0937 8.55144V17.0376C14.0937 17.3305 13.8839 17.568 13.625 17.568Z" fill="#53DCFF"/>
<path fill-rule="evenodd" clip-rule="evenodd" d="M24.875 9.08183H15.9687C15.7096 9.08183 15.5 8.84461 15.5 8.55144C15.5 8.25827 15.7096 8.02106 15.9687 8.02106H24.875C25.1341 8.02106 25.3438 8.25827 25.3438 8.55144C25.3438 8.84461 25.1341 9.08183 24.875 9.08183Z" fill="#FF4F19"/>
<path fill-rule="evenodd" clip-rule="evenodd" d="M19.7188 13.3249H15.9688C15.7096 13.3249 15.5 13.0877 15.5 12.7945C15.5 12.5014 15.7096 12.2642 15.9688 12.2642H19.7188C19.9779 12.2642 20.1875 12.5014 20.1875 12.7945C20.1875 13.0877 19.9779 13.3249 19.7188 13.3249Z" fill="#B9BBC1"/>
<path fill-rule="evenodd" clip-rule="evenodd" d="M19.7188 15.4465H15.9688C15.7096 15.4465 15.5 15.2092 15.5 14.9161C15.5 14.6229 15.7096 14.3857 15.9688 14.3857H19.7188C19.9779 14.3857 20.1875 14.6229 20.1875 14.9161C20.1875 15.2092 19.9779 15.4465 19.7188 15.4465Z" fill="#B9BBC1"/>
<path fill-rule="evenodd" clip-rule="evenodd" d="M19.7188 17.568H15.9688C15.7096 17.568 15.5 17.3308 15.5 17.0376C15.5 16.7445 15.7096 16.5073 15.9688 16.5073H19.7188C19.9779 16.5073 20.1875 16.7445 20.1875 17.0376C20.1875 17.3308 19.9779 17.568 19.7188 17.568Z" fill="#B9BBC1"/>
<path fill-rule="evenodd" clip-rule="evenodd" d="M25.3438 13.3249H21.5938C21.3346 13.3249 21.125 13.0877 21.125 12.7945C21.125 12.5014 21.3346 12.2642 21.5938 12.2642H25.3438C25.6029 12.2642 25.8125 12.5014 25.8125 12.7945C25.8125 13.0877 25.6029 13.3249 25.3438 13.3249Z" fill="#B9BBC1"/>
<path fill-rule="evenodd" clip-rule="evenodd" d="M25.3438 15.4465H21.5938C21.3346 15.4465 21.125 15.2092 21.125 14.9161C21.125 14.6229 21.3346 14.3857 21.5938 14.3857H25.3438C25.6029 14.3857 25.8125 14.6229 25.8125 14.9161C25.8125 15.2092 25.6029 15.4465 25.3438 15.4465Z" fill="#B9BBC1"/>
<path fill-rule="evenodd" clip-rule="evenodd" d="M25.3438 17.568H21.5938C21.3346 17.568 21.125 17.3308 21.125 17.0376C21.125 16.7445 21.3346 16.5073 21.5938 16.5073H25.3438C25.6029 16.5073 25.8125 16.7445 25.8125 17.0376C25.8125 17.3308 25.6029 17.568 25.3438 17.568Z" fill="#B9BBC1"/>
<path fill-rule="evenodd" clip-rule="evenodd" d="M22.0625 11.2034H15.9688C15.7096 11.2034 15.5 10.9661 15.5 10.673C15.5 10.3798 15.7096 10.1426 15.9688 10.1426H22.0625C22.3216 10.1426 22.5312 10.3798 22.5312 10.673C22.5312 10.9661 22.3216 11.2034 22.0625 11.2034Z" fill="#E9001E"/>
<path fill-rule="evenodd" clip-rule="evenodd" d="M13.625 22.3415H17.375C17.8927 22.3415 18.3125 21.8665 18.3125 21.2807H12.6875C12.6875 21.8666 13.1072 22.3415 13.625 22.3415Z" fill="#8B8996"/>
</g>
<defs>
<clipPath id="clip0_799_341">
<rect width="30" height="24" fill="white" transform="translate(0.5)"/>
</clipPath>
</defs>
</svg>
