<svg width="34" height="34" viewBox="0 0 34 34" fill="none" xmlns="http://www.w3.org/2000/svg">
<path d="M25.5 14.875V27.0938C25.5 27.4426 25.4313 27.788 25.2978 28.1103C25.1643 28.4325 24.9687 28.7253 24.722 28.972C24.4753 29.2187 24.1825 29.4143 23.8603 29.5478C23.538 29.6813 23.1926 29.75 22.8438 29.75H6.90625C6.20177 29.75 5.52614 29.4701 5.028 28.972C4.52985 28.4739 4.25 27.7982 4.25 27.0938V11.1562C4.25 10.4518 4.52985 9.77614 5.028 9.278C5.52614 8.77985 6.20177 8.5 6.90625 8.5H18.028" stroke="#385BD2" stroke-linecap="round" stroke-linejoin="round"/>
<path d="M30.543 3.53615C30.4459 3.42953 30.3283 3.34369 30.1971 3.28382C30.066 3.22395 29.9241 3.19129 29.7799 3.18781C29.6358 3.18433 29.4925 3.21012 29.3586 3.2636C29.2247 3.31708 29.1031 3.39715 29.001 3.49896L28.1796 4.31643C28.08 4.41604 28.0241 4.55112 28.0241 4.69195C28.0241 4.83279 28.08 4.96786 28.1796 5.06748L28.9326 5.8192C28.982 5.86879 29.0407 5.90815 29.1053 5.935C29.1699 5.96185 29.2392 5.97567 29.3091 5.97567C29.3791 5.97567 29.4484 5.96185 29.513 5.935C29.5776 5.90815 29.6363 5.86879 29.6857 5.8192L30.4865 5.02232C30.8916 4.61791 30.9295 3.95916 30.543 3.53615ZM26.5188 5.97658L14.5311 17.943C14.4584 18.0154 14.4056 18.1053 14.3777 18.204L13.8232 19.8555C13.8099 19.9003 13.809 19.9479 13.8205 19.9932C13.832 20.0385 13.8555 20.0798 13.8885 20.1129C13.9216 20.1459 13.963 20.1694 14.0083 20.1809C14.0536 20.1924 14.1011 20.1915 14.1459 20.1782L15.7961 19.6237C15.8949 19.5958 15.9847 19.543 16.0571 19.4703L28.0235 7.48135C28.1342 7.36945 28.1963 7.2184 28.1963 7.061C28.1963 6.90359 28.1342 6.75254 28.0235 6.64064L27.3628 5.97658C27.2507 5.86486 27.099 5.80213 26.9408 5.80213C26.7825 5.80213 26.6308 5.86486 26.5188 5.97658Z" fill="#385BD2"/>
</svg>
