<svg width="22" height="18" viewBox="0 0 21 16" fill="none" xmlns="http://www.w3.org/2000/svg">
<g clip-path="url(#clip0_799_361)">
<path fill-rule="evenodd" clip-rule="evenodd" d="M2.53448 0.988501C4.11853 -0.124267 6.16396 -0.181171 6.74354 0.330965C7.71661 1.19085 9.05175 1.39316 10.5 1.39316C11.9483 1.39316 13.2834 1.19081 14.2565 0.330965C14.836 -0.181171 16.8815 -0.124267 18.4655 0.988501C19.5708 1.76491 21 10.3711 21 12.7231C21 14.8475 20.234 15.7852 19.1897 15.9603C17.9827 16.1626 16.6552 14.7463 15.569 13.5324C14.4827 12.3185 11.9483 11.9138 10.5 11.9138C9.05175 11.9138 6.51727 12.3185 5.43104 13.5324C4.34483 14.7463 3.01727 16.1626 1.81034 15.9603C0.766018 15.7852 0 14.8475 0 12.7231C0 10.3711 1.42923 1.76491 2.53448 0.988501Z" fill="#E4EAF6"/>
<path fill-rule="evenodd" clip-rule="evenodd" d="M13.7587 10.793C12.5589 10.793 11.5863 9.72115 11.5863 8.39901C11.5863 7.07687 12.5589 6.00507 13.7587 6.00507C14.9585 6.00507 15.9312 7.07687 15.9312 8.39901C15.9312 9.72115 14.9585 10.793 13.7587 10.793Z" fill="#D7DEED"/>
<path fill-rule="evenodd" clip-rule="evenodd" d="M10.5 5.6061C9.90007 5.6061 9.41375 5.0702 9.41375 4.40913C9.41375 3.74806 9.90007 3.21216 10.5 3.21216C11.0999 3.21216 11.5862 3.74806 11.5862 4.40913C11.5862 5.0702 11.0999 5.6061 10.5 5.6061Z" fill="#C7CFE2"/>
<path fill-rule="evenodd" clip-rule="evenodd" d="M2.53444 0.988501C4.11852 -0.124267 6.16392 -0.181171 6.74352 0.330965C7.71656 1.19085 9.05171 1.39311 10.5 1.39311C11.9482 1.39311 13.2834 1.19076 14.2564 0.330965C14.836 -0.181171 16.8814 -0.124267 18.4655 0.988501C18.6132 1.09227 18.7668 1.33937 18.9219 1.6892C17.1637 0.839621 15.9233 0.793293 15.1164 0.793293C14.709 0.793293 13.7893 1.70479 13.4418 1.94037C12.8534 2.33937 11.7446 2.41417 10.5 2.41417C9.25536 2.41417 8.14653 2.33937 7.55817 1.94037C7.21073 1.70475 6.2909 0.793293 5.88358 0.793293C5.07667 0.793293 3.83617 0.839621 2.07806 1.6892C2.23315 1.33933 2.38671 1.09227 2.53444 0.988501Z" fill="#D7DEED"/>
<path fill-rule="evenodd" clip-rule="evenodd" d="M10.5001 5.80559C11.1988 5.80559 11.7673 5.17901 11.7673 4.40911C11.7673 3.63921 11.1987 3.01263 10.5001 3.01263C9.80141 3.01263 9.2328 3.63921 9.2328 4.40911C9.2328 5.17901 9.80137 5.80559 10.5001 5.80559ZM10.5001 3.41168C10.9993 3.41168 11.4052 3.85919 11.4052 4.40915C11.4052 4.95912 10.9993 5.40662 10.5001 5.40662C10.0008 5.40662 9.5949 4.95912 9.5949 4.40915C9.5949 3.85919 10.0008 3.41168 10.5001 3.41168Z" fill="#D2FA50"/>
<path fill-rule="evenodd" clip-rule="evenodd" d="M12.6723 4.80808H13.0344C13.2343 4.80808 13.3965 4.62941 13.3965 4.40908C13.3965 4.18874 13.2343 4.01007 13.0344 4.01007H12.6723C12.4724 4.01007 12.3102 4.18874 12.3102 4.40908C12.3102 4.62946 12.4723 4.80808 12.6723 4.80808Z" fill="#D7DEED"/>
<path fill-rule="evenodd" clip-rule="evenodd" d="M7.96553 4.80808H8.32761C8.52756 4.80808 8.6897 4.62941 8.6897 4.40908C8.6897 4.18874 8.52756 4.01007 8.32761 4.01007H7.96553C7.76557 4.01007 7.60344 4.18874 7.60344 4.40908C7.60344 4.62946 7.76557 4.80808 7.96553 4.80808Z" fill="#D7DEED"/>
<path fill-rule="evenodd" clip-rule="evenodd" d="M7.24139 10.793C6.04158 10.793 5.06894 9.72115 5.06894 8.39901C5.06894 7.07687 6.04158 6.00507 7.24139 6.00507C8.44119 6.00507 9.41382 7.07687 9.41382 8.39901C9.41382 9.72115 8.44119 10.793 7.24139 10.793Z" fill="#D7DEED"/>
<path fill-rule="evenodd" clip-rule="evenodd" d="M13.7585 10.3939C12.7587 10.3939 11.9482 9.50077 11.9482 8.39899C11.9482 7.29722 12.7587 6.40405 13.7585 6.40405C14.7583 6.40405 15.5688 7.29722 15.5688 8.39899C15.5688 9.50077 14.7583 10.3939 13.7585 10.3939Z" fill="#707487"/>
<path fill-rule="evenodd" clip-rule="evenodd" d="M7.24128 9.79552C6.5414 9.79552 5.97401 9.17029 5.97401 8.39904C5.97401 7.62779 6.5414 7.00256 7.24128 7.00256C7.94117 7.00256 8.50854 7.62779 8.50854 8.39904C8.50854 9.17029 7.94117 9.79552 7.24128 9.79552Z" fill="#707487"/>
<path fill-rule="evenodd" clip-rule="evenodd" d="M16.6552 6.80309C15.4554 6.80309 14.4828 5.73128 14.4828 4.40914C14.4828 3.087 15.4554 2.0152 16.6552 2.0152C17.855 2.0152 18.8276 3.087 18.8276 4.40914C18.8276 5.73128 17.855 6.80309 16.6552 6.80309Z" fill="#D7DEED"/>
<path fill-rule="evenodd" clip-rule="evenodd" d="M16.6551 5.80566C15.9552 5.80566 15.3878 5.18042 15.3878 4.40917C15.3878 3.63792 15.9552 3.0127 16.6551 3.0127C17.355 3.0127 17.9224 3.63792 17.9224 4.40917C17.9224 5.18042 17.355 5.80566 16.6551 5.80566Z" fill="#707487"/>
<path fill-rule="evenodd" clip-rule="evenodd" d="M5.7932 5.20708C5.39328 5.20708 5.06907 4.84981 5.06907 4.40911C5.06907 3.96841 5.39328 3.61115 5.7932 3.61115C6.19313 3.61115 6.51733 3.96841 6.51733 4.40911C6.51733 4.84981 6.19313 5.20708 5.7932 5.20708Z" fill="#82B9FF"/>
<path fill-rule="evenodd" clip-rule="evenodd" d="M2.89647 5.20708C2.49655 5.20708 2.17234 4.84981 2.17234 4.40911C2.17234 3.96841 2.49655 3.61115 2.89647 3.61115C3.2964 3.61115 3.62061 3.96841 3.62061 4.40911C3.62061 4.84981 3.2964 5.20708 2.89647 5.20708Z" fill="#FF6464"/>
<path fill-rule="evenodd" clip-rule="evenodd" d="M11.9998 7.94436C12.156 7.20917 12.6788 6.63303 13.346 6.46088C13.3757 6.56998 13.3965 6.68325 13.3965 6.80302C13.3965 7.46408 12.9102 8 12.3103 8C12.2016 8 12.0988 7.97708 11.9998 7.94436Z" fill="#5B5D6E"/>
<path fill-rule="evenodd" clip-rule="evenodd" d="M15.5173 7.94436C15.4183 7.97708 15.3155 8 15.2068 8C14.607 8 14.1206 7.46408 14.1206 6.80302C14.1206 6.68329 14.1414 6.56998 14.1711 6.46088C14.8383 6.63303 15.3611 7.20922 15.5173 7.94436Z" fill="#5B5D6E"/>
<path fill-rule="evenodd" clip-rule="evenodd" d="M11.9998 8.85361C12.0988 8.82089 12.2016 8.79797 12.3103 8.79797C12.9102 8.79797 13.3965 9.33388 13.3965 9.99494C13.3965 10.1147 13.3757 10.228 13.346 10.3371C12.6788 10.1649 12.156 9.58875 11.9998 8.85361Z" fill="#5B5D6E"/>
<path fill-rule="evenodd" clip-rule="evenodd" d="M15.2068 8.79797C15.3155 8.79797 15.4183 8.82084 15.5173 8.85361C15.3611 9.5888 14.8383 10.1649 14.1711 10.3371C14.1414 10.228 14.1206 10.1147 14.1206 9.99494C14.1206 9.33388 14.6069 8.79797 15.2068 8.79797Z" fill="#5B5D6E"/>
<path fill-rule="evenodd" clip-rule="evenodd" d="M4.34472 6.80303C3.94479 6.80303 3.62059 6.44576 3.62059 6.00506C3.62059 5.56435 3.94479 5.20709 4.34472 5.20709C4.74464 5.20709 5.06885 5.56435 5.06885 6.00506C5.06885 6.44576 4.74464 6.80303 4.34472 6.80303Z" fill="#00DCC8"/>
<path fill-rule="evenodd" clip-rule="evenodd" d="M4.34472 3.61113C3.94479 3.61113 3.62059 3.25387 3.62059 2.81316C3.62059 2.37246 3.94479 2.0152 4.34472 2.0152C4.74464 2.0152 5.06885 2.37246 5.06885 2.81316C5.06885 3.25387 4.74464 3.61113 4.34472 3.61113Z" fill="#FFDC50"/>
<path fill-rule="evenodd" clip-rule="evenodd" d="M5.08159 13.1868C6.24269 11.6998 8.95198 11.2041 10.5001 11.2041C12.0483 11.2041 14.7575 11.6998 15.9186 13.1868C16.9193 14.4684 18.1114 15.7257 19.2476 15.9477C19.2282 15.9516 19.2094 15.957 19.1898 15.9603C17.9828 16.1627 16.6553 14.7464 15.5691 13.5324C14.4829 12.3185 11.9484 11.9138 10.5001 11.9138C9.05187 11.9138 6.51738 12.3184 5.43115 13.5324C4.34494 14.7463 3.01738 16.1626 1.81046 15.9603C1.79086 15.957 1.77203 15.9515 1.75268 15.9477C2.88885 15.7257 4.08097 14.4684 5.08159 13.1868Z" fill="#707487"/>
</g>
<defs>
<clipPath id="clip0_799_361">
<rect width="21" height="16" fill="white" transform="matrix(-1 0 0 1 21 0)"/>
</clipPath>
</defs>
</svg>
