<svg width="200" height="29" viewBox="0 0 200 29" fill="none" xmlns="http://www.w3.org/2000/svg">
<rect x="129.5" y="1" width="70" height="16" rx="3.5" stroke="black"/>
<path d="M150.103 11.78V12.5H145.765V6.11H150.022V6.83H146.575V8.9H149.572V9.575H146.575V11.78H150.103ZM152.024 7.604V12.5H151.214V6.11H151.898L155.804 11.105V6.119H156.614V12.5H155.876L152.024 7.604ZM160.705 12.545C160.285 12.545 159.892 12.455 159.526 12.275C159.166 12.089 158.851 11.843 158.581 11.537C158.311 11.225 158.101 10.877 157.951 10.493C157.801 10.103 157.726 9.701 157.726 9.287C157.726 8.855 157.801 8.447 157.951 8.063C158.101 7.673 158.308 7.328 158.572 7.028C158.842 6.728 159.157 6.494 159.517 6.326C159.883 6.152 160.279 6.065 160.705 6.065C161.323 6.065 161.833 6.194 162.235 6.452C162.637 6.71 162.94 7.046 163.144 7.46L162.523 7.892C162.337 7.52 162.082 7.244 161.758 7.064C161.434 6.884 161.077 6.794 160.687 6.794C160.363 6.794 160.069 6.863 159.805 7.001C159.541 7.139 159.313 7.328 159.121 7.568C158.935 7.802 158.791 8.069 158.689 8.369C158.593 8.669 158.545 8.981 158.545 9.305C158.545 9.647 158.599 9.971 158.707 10.277C158.821 10.577 158.98 10.844 159.184 11.078C159.388 11.306 159.625 11.486 159.895 11.618C160.165 11.75 160.456 11.816 160.768 11.816C161.134 11.816 161.482 11.723 161.812 11.537C162.142 11.351 162.454 11.066 162.748 10.682V11.519C162.172 12.203 161.491 12.545 160.705 12.545ZM162.649 9.926H161.272V9.314H163.333V12.5H162.649V9.926ZM164.565 12.5V6.11H165.375V11.78H168.939V12.5H164.565ZM169.821 12.5V6.11H170.631V12.5H169.821ZM175.912 7.451C175.84 7.367 175.744 7.286 175.624 7.208C175.504 7.13 175.369 7.061 175.219 7.001C175.069 6.935 174.904 6.884 174.724 6.848C174.55 6.806 174.367 6.785 174.175 6.785C173.683 6.785 173.32 6.878 173.086 7.064C172.852 7.25 172.735 7.505 172.735 7.829C172.735 8.057 172.795 8.237 172.915 8.369C173.035 8.501 173.218 8.609 173.464 8.693C173.716 8.777 174.034 8.864 174.418 8.954C174.862 9.05 175.246 9.167 175.57 9.305C175.894 9.443 176.143 9.629 176.317 9.863C176.491 10.091 176.578 10.397 176.578 10.781C176.578 11.087 176.518 11.354 176.398 11.582C176.284 11.804 176.122 11.99 175.912 12.14C175.702 12.284 175.456 12.392 175.174 12.464C174.892 12.53 174.586 12.563 174.256 12.563C173.932 12.563 173.614 12.53 173.302 12.464C172.996 12.392 172.705 12.29 172.429 12.158C172.153 12.026 171.895 11.861 171.655 11.663L172.042 10.979C172.138 11.081 172.261 11.183 172.411 11.285C172.567 11.381 172.741 11.471 172.933 11.555C173.131 11.639 173.344 11.708 173.572 11.762C173.8 11.81 174.034 11.834 174.274 11.834C174.73 11.834 175.084 11.753 175.336 11.591C175.588 11.423 175.714 11.18 175.714 10.862C175.714 10.622 175.642 10.43 175.498 10.286C175.36 10.142 175.153 10.022 174.877 9.926C174.601 9.83 174.265 9.734 173.869 9.638C173.437 9.53 173.074 9.413 172.78 9.287C172.486 9.155 172.264 8.984 172.114 8.774C171.97 8.564 171.898 8.291 171.898 7.955C171.898 7.547 171.997 7.202 172.195 6.92C172.393 6.638 172.666 6.425 173.014 6.281C173.362 6.137 173.755 6.065 174.193 6.065C174.481 6.065 174.748 6.095 174.994 6.155C175.246 6.215 175.48 6.299 175.696 6.407C175.912 6.515 176.11 6.644 176.29 6.794L175.912 7.451ZM182.782 6.11V12.5H181.972V9.593H178.453V12.5H177.643V6.11H178.453V8.873H181.972V6.11H182.782Z" fill="black"/>
<path d="M2.04 22.5V5.46H13.296V7.38H4.2V13.068H11.856V14.868H4.2V22.5H2.04ZM19.9037 5.46H21.7277L28.6877 22.5H26.3837L24.3677 17.508H17.2157L15.2237 22.5H12.9197L19.9037 5.46ZM23.8877 15.828L20.8157 7.956L17.6477 15.828H23.8877ZM30.0591 5.46L35.6991 19.788L41.3151 5.46H43.5951L36.6831 22.5H34.7151L27.7791 5.46H30.0591ZM52.1473 22.62C50.9473 22.62 49.8593 22.38 48.8833 21.9C47.9073 21.42 47.0593 20.772 46.3393 19.956C45.6353 19.124 45.0913 18.196 44.7073 17.172C44.3233 16.132 44.1313 15.068 44.1313 13.98C44.1313 12.844 44.3313 11.764 44.7313 10.74C45.1473 9.7 45.7153 8.78 46.4353 7.98C47.1713 7.164 48.0273 6.524 49.0033 6.06C49.9793 5.58 51.0433 5.34 52.1953 5.34C53.3953 5.34 54.4833 5.588 55.4593 6.084C56.4353 6.58 57.2753 7.244 57.9793 8.076C58.6833 8.908 59.2273 9.836 59.6113 10.86C59.9953 11.884 60.1873 12.932 60.1873 14.004C60.1873 15.14 59.9873 16.228 59.5873 17.268C59.1873 18.292 58.6193 19.212 57.8833 20.028C57.1633 20.828 56.3153 21.46 55.3393 21.924C54.3633 22.388 53.2993 22.62 52.1473 22.62ZM46.3153 13.98C46.3153 14.844 46.4513 15.684 46.7233 16.5C47.0113 17.3 47.4113 18.012 47.9233 18.636C48.4353 19.26 49.0513 19.756 49.7713 20.124C50.4913 20.492 51.2913 20.676 52.1713 20.676C53.0833 20.676 53.8993 20.484 54.6193 20.1C55.3393 19.716 55.9473 19.204 56.4433 18.564C56.9553 17.924 57.3393 17.204 57.5953 16.404C57.8673 15.604 58.0033 14.796 58.0033 13.98C58.0033 13.116 57.8593 12.284 57.5713 11.484C57.2993 10.684 56.8993 9.972 56.3713 9.348C55.8593 8.708 55.2433 8.212 54.5233 7.86C53.8193 7.492 53.0353 7.308 52.1713 7.308C51.2593 7.308 50.4433 7.5 49.7233 7.884C49.0033 8.252 48.3873 8.756 47.8753 9.396C47.3793 10.036 46.9953 10.756 46.7233 11.556C46.4513 12.34 46.3153 13.148 46.3153 13.98ZM63.1884 22.5V5.46H70.4844C71.2364 5.46 71.9244 5.62 72.5484 5.94C73.1724 6.244 73.7164 6.66 74.1804 7.188C74.6444 7.7 75.0044 8.284 75.2604 8.94C75.5164 9.58 75.6444 10.236 75.6444 10.908C75.6444 11.692 75.4924 12.436 75.1884 13.14C74.9004 13.844 74.4844 14.444 73.9404 14.94C73.4124 15.436 72.7884 15.78 72.0684 15.972L76.1964 22.5H73.7484L69.8604 16.38H65.3484V22.5H63.1884ZM65.3484 14.46H70.5084C71.1004 14.46 71.6124 14.3 72.0444 13.98C72.4924 13.644 72.8364 13.204 73.0764 12.66C73.3324 12.116 73.4604 11.532 73.4604 10.908C73.4604 10.268 73.3164 9.684 73.0284 9.156C72.7404 8.612 72.3644 8.18 71.9004 7.86C71.4364 7.54 70.9244 7.38 70.3644 7.38H65.3484V14.46ZM78.9619 22.5V5.46H81.1219V22.5H78.9619ZM97.4843 7.38H91.6043V22.5H89.4443V7.38H83.5643V5.46H97.4843V7.38ZM111.506 20.58V22.5H99.9384V5.46H111.29V7.38H102.098V12.9H110.09V14.7H102.098V20.58H111.506Z" fill="black"/>
</svg>
