<svg width="54" height="55" viewBox="0 0 54 55" fill="none" xmlns="http://www.w3.org/2000/svg">
<mask id="mask0_1606_78" style="mask-type:luminance" maskUnits="userSpaceOnUse" x="0" y="0" width="54" height="55">
<path d="M54 27.5C54 12.5883 41.9117 0.5 27 0.5C12.0883 0.5 0 12.5883 0 27.5C0 42.4117 12.0883 54.5 27 54.5C41.9117 54.5 54 42.4117 54 27.5Z" fill="white"/>
</mask>
<g mask="url(#mask0_1606_78)">
<path d="M54 27.5C54 12.5883 41.9117 0.5 27 0.5C12.0883 0.5 0 12.5883 0 27.5C0 42.4117 12.0883 54.5 27 54.5C41.9117 54.5 54 42.4117 54 27.5Z" fill="white"/>
<mask id="mask1_1606_78" style="mask-type:luminance" maskUnits="userSpaceOnUse" x="3" y="9" width="115" height="20">
<path d="M117.669 9.96283H3.59998V28.0657H117.669V9.96283Z" fill="white"/>
<path d="M3.78101 27.7571V10.2302H15.5561V13.2172H7.18763V17.7347H14.149V20.4995H7.18763V27.7571H3.78101ZM21.4668 10.2302H24.9228L31.3658 27.7571H27.8604L26.2311 23.3877H20.1091L18.5045 27.7571H14.9991L21.4668 10.2302ZM25.614 20.9932L23.1948 13.7603L20.6768 20.9932H25.614ZM33.6679 10.2302L38.4076 23.7086L43.0978 10.2302H46.6773L40.0368 27.7571H36.7536L30.0885 10.2302H33.6679ZM55.3528 27.8805C54.0691 27.8805 52.9006 27.6337 51.8474 27.14C50.8106 26.6462 49.9137 25.9797 49.1566 25.1404C48.4161 24.2846 47.8401 23.3301 47.4286 22.2769C47.0172 21.2072 46.8115 20.1128 46.8115 18.9937C46.8115 17.8252 47.0254 16.7144 47.4533 15.6611C47.8977 14.5914 48.4984 13.6451 49.2554 12.8222C50.0289 11.9829 50.934 11.3246 51.9708 10.8474C53.0241 10.3537 54.1761 10.1068 55.4268 10.1068C56.694 10.1068 57.846 10.3619 58.8828 10.8721C59.9361 11.3822 60.833 12.0652 61.5736 12.921C62.3141 13.7768 62.8901 14.7313 63.3016 15.7845C63.713 16.8378 63.9187 17.924 63.9187 19.043C63.9187 20.195 63.7048 21.3059 63.2769 22.3756C62.849 23.4289 62.2483 24.3752 61.4748 25.2145C60.7178 26.0373 59.8126 26.6874 58.7594 27.1646C57.7226 27.6419 56.587 27.8805 55.3528 27.8805ZM50.2675 18.9937C50.2675 19.7507 50.3827 20.483 50.6131 21.1907C50.8435 21.8984 51.1726 22.532 51.6005 23.0915C52.0449 23.6346 52.5797 24.0707 53.2051 24.3998C53.8469 24.7125 54.571 24.8689 55.3774 24.8689C56.2003 24.8689 56.9326 24.7043 57.5745 24.3752C58.2163 24.0296 58.7512 23.577 59.179 23.0174C59.6069 22.4414 59.9278 21.8078 60.1418 21.1166C60.3722 20.409 60.4874 19.7013 60.4874 18.9937C60.4874 18.2366 60.364 17.5125 60.1171 16.8213C59.8867 16.1137 59.5493 15.4883 59.105 14.9452C58.6771 14.3857 58.1422 13.9496 57.5004 13.6369C56.875 13.3077 56.1674 13.1432 55.3774 13.1432C54.5381 13.1432 53.7976 13.316 53.1557 13.6616C52.5304 13.9907 52.0037 14.435 51.5758 14.9946C51.148 15.5541 50.8188 16.1795 50.5884 16.8707C50.3745 17.5619 50.2675 18.2696 50.2675 18.9937ZM66.5319 27.7571V10.2302H74.2832C75.0896 10.2302 75.8302 10.3948 76.5049 10.724C77.1961 11.0531 77.7886 11.4974 78.2823 12.057C78.7925 12.6165 79.1792 13.2419 79.4425 13.9331C79.7223 14.6243 79.8622 15.332 79.8622 16.0561C79.8622 16.7966 79.7305 17.5125 79.4672 18.2037C79.2204 18.8785 78.8583 19.4709 78.381 19.9811C77.9038 20.4913 77.3442 20.8862 76.7024 21.166L80.7015 27.7571H76.9493L73.3451 21.8819H69.9385V27.7571H66.5319ZM69.9385 18.8949H74.2092C74.637 18.8949 75.0155 18.7715 75.3447 18.5246C75.6738 18.2613 75.9371 17.9157 76.1346 17.4878C76.3321 17.06 76.4309 16.5827 76.4309 16.0561C76.4309 15.4965 76.3157 15.011 76.0853 14.5996C75.8549 14.1717 75.5586 13.8344 75.1966 13.5875C74.851 13.3406 74.4725 13.2172 74.061 13.2172H69.9385V18.8949ZM82.9489 27.7571V10.2302H86.3555V27.7571H82.9489ZM103.12 13.2172H97.5167V27.7571H94.1347V13.2172H88.5311V10.2302H103.12V13.2172ZM117.466 24.7701V27.7571H105.296V10.2302H117.244V13.2172H108.702V17.4385H116.084V20.2033H108.702V24.7701H117.466Z" fill="black"/>
</mask>
<g mask="url(#mask1_1606_78)">
<path d="M3.78102 27.7571H3.67816V27.86H3.78102V27.7571ZM3.78102 10.2303V10.1274H3.67816V10.2303H3.78102ZM15.5561 10.2303H15.659V10.1274H15.5561V10.2303ZM15.5561 13.2172V13.3201H15.659V13.2172H15.5561ZM7.18765 13.2172V13.1144H7.08479V13.2172H7.18765ZM7.18765 17.7347H7.08479V17.8376H7.18765V17.7347ZM14.149 17.7347H14.2519V17.6319H14.149V17.7347ZM14.149 20.4995V20.6024H14.2519V20.4995H14.149ZM7.18765 20.4995V20.3967H7.08479V20.4995H7.18765ZM7.18765 27.7571V27.86H7.2905V27.7571H7.18765ZM3.88388 27.7571V10.2303H3.67816V27.7571H3.88388ZM3.78102 10.3331H15.5561V10.1274H3.78102V10.3331ZM15.4532 10.2303V13.2172H15.659V10.2303H15.4532ZM15.5561 13.1144H7.18765V13.3201H15.5561V13.1144ZM7.08479 13.2172V17.7347H7.2905V13.2172H7.08479ZM7.18765 17.8376H14.149V17.6319H7.18765V17.8376ZM14.0462 17.7347V20.4995H14.2519V17.7347H14.0462ZM14.149 20.3967H7.18765V20.6024H14.149V20.3967ZM7.08479 20.4995V27.7571H7.2905V20.4995H7.08479ZM7.18765 27.6543H3.78102V27.86H7.18765V27.6543ZM21.4668 10.2303V10.1274H21.3951L21.3703 10.1946L21.4668 10.2303ZM24.9228 10.2303L25.0194 10.1948L24.9946 10.1274H24.9228V10.2303ZM31.3658 27.7571V27.86H31.5132L31.4623 27.7216L31.3658 27.7571ZM27.8604 27.7571L27.764 27.793L27.789 27.86H27.8604V27.7571ZM26.2311 23.3877L26.3275 23.3518L26.3025 23.2849H26.2311V23.3877ZM20.1091 23.3877V23.2849H20.0373L20.0125 23.3523L20.1091 23.3877ZM18.5045 27.7571V27.86H18.5763L18.6011 27.7926L18.5045 27.7571ZM14.9991 27.7571L14.9027 27.7215L14.8515 27.86H14.9991V27.7571ZM25.614 20.9932V21.0961H25.7569L25.7115 20.9606L25.614 20.9932ZM23.1948 13.7603L23.2923 13.7277L23.1967 13.4419L23.0977 13.7265L23.1948 13.7603ZM20.6768 20.9932L20.5797 20.9594L20.5321 21.0961H20.6768V20.9932ZM21.4668 10.3331H24.9228V10.1274H21.4668V10.3331ZM24.8262 10.2657L31.2692 27.7926L31.4623 27.7216L25.0194 10.1948L24.8262 10.2657ZM31.3658 27.6543H27.8604V27.86H31.3658V27.6543ZM27.9568 27.7212L26.3275 23.3518L26.1348 23.4236L27.764 27.793L27.9568 27.7212ZM26.2311 23.2849H20.1091V23.4906H26.2311V23.2849ZM20.0125 23.3523L18.4079 27.7216L18.6011 27.7926L20.2057 23.4232L20.0125 23.3523ZM18.5045 27.6543H14.9991V27.86H18.5045V27.6543ZM15.0956 27.7927L21.5633 10.2659L21.3703 10.1946L14.9027 27.7215L15.0956 27.7927ZM25.7115 20.9606L23.2923 13.7277L23.0973 13.7929L25.5165 21.0258L25.7115 20.9606ZM23.0977 13.7265L20.5797 20.9594L20.7739 21.0271L23.2919 13.7941L23.0977 13.7265ZM20.6768 21.0961H25.614V20.8904H20.6768V21.0961ZM33.6679 10.2303L33.7649 10.1961L33.7407 10.1274H33.6679V10.2303ZM38.4076 23.7087L38.3106 23.7428L38.4081 24.0202L38.5047 23.7425L38.4076 23.7087ZM43.0978 10.2303V10.1274H43.0247L43.0006 10.1964L43.0978 10.2303ZM46.6773 10.2303L46.7734 10.2667L46.8262 10.1274H46.6773V10.2303ZM40.0368 27.7571V27.86H40.1078L40.133 27.7935L40.0368 27.7571ZM36.7536 27.7571L36.6574 27.7936L36.6826 27.86H36.7536V27.7571ZM30.0885 10.2303V10.1274H29.9393L29.9923 10.2668L30.0885 10.2303ZM33.5709 10.2644L38.3106 23.7428L38.5046 23.6745L33.7649 10.1961L33.5709 10.2644ZM38.5047 23.7425L43.1949 10.2641L43.0006 10.1964L38.3104 23.6748L38.5047 23.7425ZM43.0978 10.3331H46.6773V10.1274H43.0978V10.3331ZM46.5811 10.1938L39.9407 27.7207L40.133 27.7935L46.7734 10.2667L46.5811 10.1938ZM40.0368 27.6543H36.7536V27.86H40.0368V27.6543ZM36.8498 27.7206L30.1847 10.1937L29.9923 10.2668L36.6574 27.7936L36.8498 27.7206ZM30.0885 10.3331H33.6679V10.1274H30.0885V10.3331ZM51.8474 27.14L51.8032 27.2329L51.8037 27.2331L51.8474 27.14ZM49.1566 25.1404L49.0789 25.2077L49.0795 25.2085L49.0802 25.2093L49.1566 25.1404ZM47.4286 22.2769L47.3327 22.3138L47.3328 22.3143L47.4286 22.2769ZM47.4533 15.6611L47.3583 15.6216L47.358 15.6224L47.4533 15.6611ZM49.2554 12.8223L49.1798 12.7525L49.1797 12.7526L49.2554 12.8223ZM51.9708 10.8474L52.0138 10.9408L52.0144 10.9405L51.9708 10.8474ZM58.8828 10.8721L58.8374 10.9643L58.838 10.9647L58.8828 10.8721ZM63.2769 22.3756L63.3721 22.4143L63.3723 22.4138L63.2769 22.3756ZM61.4748 25.2145L61.3992 25.1447L61.3991 25.1448L61.4748 25.2145ZM58.7594 27.1647L58.7169 27.071L58.7164 27.0713L58.7594 27.1647ZM51.6005 23.0915L51.5189 23.1539L51.5199 23.1554L51.5209 23.1566L51.6005 23.0915ZM53.2051 24.3999L53.1572 24.4909L53.1586 24.4916L53.1601 24.4923L53.2051 24.3999ZM57.5745 24.3752L57.6214 24.4667L57.6223 24.4662L57.6232 24.4657L57.5745 24.3752ZM59.179 23.0175L59.2607 23.08L59.2616 23.0788L59.179 23.0175ZM60.1418 21.1167L60.044 21.0848L60.0438 21.0855L60.0436 21.0862L60.1418 21.1167ZM60.1171 16.8213L60.0193 16.8532L60.0197 16.8546L60.0202 16.8559L60.1171 16.8213ZM59.105 14.9452L59.0233 15.0077L59.0244 15.009L59.0254 15.0103L59.105 14.9452ZM57.5004 13.6369L57.4525 13.7279L57.4539 13.7286L57.4554 13.7294L57.5004 13.6369ZM53.1557 13.6616L53.2037 13.7526L53.2045 13.7521L53.1557 13.6616ZM50.5884 16.8707L50.4908 16.8382L50.4905 16.8392L50.4902 16.8403L50.5884 16.8707ZM55.3528 27.7777C54.0826 27.7777 52.9292 27.5335 51.891 27.0469L51.8037 27.2331C52.8721 27.7339 54.0556 27.9834 55.3528 27.9834V27.7777ZM51.8916 27.0471C50.8668 26.5591 49.9808 25.9006 49.233 25.0715L49.0802 25.2093C49.8465 26.0588 50.7543 26.7334 51.8032 27.2329L51.8916 27.0471ZM49.2344 25.0732C48.5016 24.2262 47.9316 23.2818 47.5244 22.2394L47.3328 22.3143C47.7485 23.3785 48.3306 24.3431 49.0789 25.2077L49.2344 25.0732ZM47.5246 22.24C47.1176 21.1818 46.9144 20.0998 46.9144 18.9937H46.7086C46.7086 20.1257 46.9168 21.2326 47.3327 22.3138L47.5246 22.24ZM46.9144 18.9937C46.9144 17.8381 47.1258 16.7404 47.5486 15.6998L47.358 15.6224C46.925 16.6883 46.7086 17.8124 46.7086 18.9937H46.9144ZM47.5483 15.7006C47.9882 14.6416 48.5825 13.7056 49.3311 12.8919L49.1797 12.7526C48.4142 13.5846 47.8072 14.5412 47.3583 15.6216L47.5483 15.7006ZM49.331 12.892C50.0953 12.0627 50.9894 11.4124 52.0138 10.9408L51.9278 10.754C50.8787 11.2369 49.9624 11.9032 49.1798 12.7525L49.331 12.892ZM52.0144 10.9405C53.0531 10.4537 54.19 10.2097 55.4268 10.2097V10.004C54.1621 10.004 52.9951 10.2537 51.9271 10.7543L52.0144 10.9405ZM55.4268 10.2097C56.6798 10.2097 57.8161 10.4618 58.8374 10.9643L58.9282 10.7798C57.876 10.262 56.7082 10.004 55.4268 10.004V10.2097ZM58.838 10.9647C59.8791 11.469 60.7647 12.1435 61.4958 12.9883L61.6513 12.8537C60.9013 11.987 59.9931 11.2955 58.9277 10.7795L58.838 10.9647ZM61.4958 12.9883C62.2287 13.8352 62.7986 14.7796 63.2057 15.822L63.3973 15.7471C62.9817 14.6829 62.3996 13.7183 61.6513 12.8537L61.4958 12.9883ZM63.2057 15.822C63.6126 16.8634 63.8158 17.9369 63.8158 19.0431H64.0216C64.0216 17.911 63.8134 16.8122 63.3973 15.7471L63.2057 15.822ZM63.8158 19.0431C63.8158 20.182 63.6044 21.2799 63.1813 22.3375L63.3723 22.4138C63.8051 21.3319 64.0216 20.2081 64.0216 19.0431H63.8158ZM63.1815 22.337C62.7584 23.3787 62.1644 24.3145 61.3992 25.1447L61.5504 25.2842C62.3322 24.4359 62.9396 23.4791 63.3721 22.4143L63.1815 22.337ZM61.3991 25.1448C60.6518 25.9572 59.758 26.5993 58.7169 27.071L58.8019 27.2584C59.8673 26.7755 60.7838 26.1175 61.5505 25.2841L61.3991 25.1448ZM58.7164 27.0713C57.6941 27.5417 56.5734 27.7777 55.3528 27.7777V27.9834C56.6006 27.9834 57.751 27.7421 58.8024 27.2581L58.7164 27.0713ZM50.1646 18.9937C50.1646 19.7613 50.2815 20.5044 50.5153 21.2226L50.7109 21.1588C50.4839 20.4617 50.3704 19.7401 50.3704 18.9937H50.1646ZM50.5153 21.2226C50.7491 21.9406 51.0835 22.5847 51.5189 23.1539L51.6822 23.0291C51.2618 22.4792 50.9379 21.8561 50.7109 21.1588L50.5153 21.2226ZM51.5209 23.1566C51.974 23.7105 52.5197 24.1554 53.1572 24.4909L53.253 24.3088C52.6397 23.9861 52.1156 23.5587 51.6801 23.0264L51.5209 23.1566ZM53.1601 24.4923C53.8176 24.8127 54.5575 24.9717 55.3775 24.9717V24.766C54.5846 24.766 53.8763 24.6124 53.2502 24.3074L53.1601 24.4923ZM55.3775 24.9717C56.2143 24.9717 56.9631 24.8043 57.6214 24.4667L57.5276 24.2836C56.9022 24.6043 56.1863 24.766 55.3775 24.766V24.9717ZM57.6232 24.4657C58.2774 24.1135 58.8237 23.6515 59.2607 23.0799L59.0974 22.955C58.6786 23.5025 58.1551 23.9456 57.5257 24.2847L57.6232 24.4657ZM59.2616 23.0788C59.6965 22.4934 60.0227 21.8493 60.24 21.1471L60.0436 21.0862C59.833 21.7664 59.5173 22.3895 59.0965 22.9562L59.2616 23.0788ZM60.2396 21.1485C60.4732 20.4311 60.5903 19.7127 60.5903 18.9937H60.3845C60.3845 19.69 60.2712 20.3869 60.044 21.0848L60.2396 21.1485ZM60.5903 18.9937C60.5903 18.2252 60.4649 17.4894 60.214 16.7868L60.0202 16.8559C60.263 17.5357 60.3845 18.2481 60.3845 18.9937H60.5903ZM60.2149 16.7895C59.9808 16.0705 59.6375 15.4336 59.1846 14.8801L59.0254 15.0103C59.4612 15.543 59.7926 16.1569 60.0193 16.8532L60.2149 16.7895ZM59.1867 14.8828C58.7489 14.3103 58.2015 13.864 57.5455 13.5444L57.4554 13.7294C58.083 14.0351 58.6052 14.4611 59.0233 15.0077L59.1867 14.8828ZM57.5484 13.5459C56.9065 13.2081 56.1821 13.0403 55.3775 13.0403V13.246C56.1527 13.246 56.8436 13.4074 57.4525 13.7279L57.5484 13.5459ZM55.3775 13.0403C54.5237 13.0403 53.7659 13.2162 53.107 13.5711L53.2045 13.7521C53.8292 13.4157 54.5525 13.246 55.3775 13.246V13.0403ZM53.1078 13.5705C52.4693 13.9066 51.9311 14.3607 51.4942 14.9322L51.6575 15.057C52.0764 14.5094 52.5915 14.0748 53.2037 13.7526L53.1078 13.5705ZM51.4942 14.9322C51.0591 15.501 50.7247 16.1365 50.4908 16.8382L50.686 16.9032C50.9129 16.2225 51.2368 15.6073 51.6575 15.057L51.4942 14.9322ZM50.4902 16.8403C50.2732 17.5413 50.1646 18.2593 50.1646 18.9937H50.3704C50.3704 18.2799 50.4758 17.5825 50.6866 16.9012L50.4902 16.8403ZM66.5319 27.7571H66.429V27.86H66.5319V27.7571ZM66.5319 10.2303V10.1274H66.429V10.2303H66.5319ZM76.5049 10.724L76.4599 10.8164L76.4607 10.8168L76.5049 10.724ZM78.2823 12.057L78.2051 12.1251L78.2058 12.1257L78.2063 12.1263L78.2823 12.057ZM79.4425 13.9331L79.3465 13.9697L79.3468 13.9708L79.3472 13.9717L79.4425 13.9331ZM79.4672 18.2037L79.3711 18.1671L79.3706 18.1684L79.4672 18.2037ZM76.7024 21.166L76.6614 21.0717L76.5535 21.1188L76.6145 21.2194L76.7024 21.166ZM80.7015 27.7571V27.86H80.8843L80.7894 27.7037L80.7015 27.7571ZM76.9493 27.7571L76.8616 27.8109L76.8917 27.86H76.9493V27.7571ZM73.3452 21.8819L73.4329 21.8281L73.4027 21.7791H73.3452V21.8819ZM69.9385 21.8819V21.7791H69.8357V21.8819H69.9385ZM69.9385 27.7571V27.86H70.0414V27.7571H69.9385ZM69.9385 18.8949H69.8357V18.9978H69.9385V18.8949ZM75.3447 18.5247L75.4064 18.6069L75.4077 18.606L75.409 18.605L75.3447 18.5247ZM76.0853 14.5996L75.9948 14.6484L75.9952 14.6491L75.9956 14.6499L76.0853 14.5996ZM75.1966 13.5875L75.1368 13.6712L75.1377 13.6719L75.1387 13.6725L75.1966 13.5875ZM69.9385 13.2172V13.1144H69.8357V13.2172H69.9385ZM66.6348 27.7571V10.2303H66.429V27.7571H66.6348ZM66.5319 10.3331H74.2832V10.1274H66.5319V10.3331ZM74.2832 10.3331C75.0752 10.3331 75.8001 10.4946 76.4599 10.8164L76.5501 10.6315C75.8602 10.295 75.1041 10.1274 74.2832 10.1274V10.3331ZM76.4607 10.8168C77.1398 11.1401 77.7209 11.5761 78.2051 12.1251L78.3594 11.9889C77.8563 11.4188 77.2526 10.9661 76.5491 10.6311L76.4607 10.8168ZM78.2063 12.1263C78.708 12.6765 79.0878 13.2909 79.3465 13.9697L79.5387 13.8965C79.2707 13.193 78.877 12.5566 78.3583 11.9877L78.2063 12.1263ZM79.3472 13.9717C79.6221 14.6511 79.7593 15.3455 79.7593 16.0561H79.965C79.965 15.3184 79.8225 14.5976 79.5379 13.8945L79.3472 13.9717ZM79.7593 16.0561C79.7593 16.7841 79.6299 17.4876 79.3711 18.1671L79.5634 18.2404C79.8311 17.5374 79.965 16.8092 79.965 16.0561H79.7593ZM79.3706 18.1684C79.1284 18.8306 78.7735 19.4111 78.3059 19.9109L78.4561 20.0514C78.9432 19.5308 79.3123 18.9264 79.5638 18.2391L79.3706 18.1684ZM78.3059 19.9109C77.8383 20.4107 77.2903 20.7976 76.6614 21.0717L76.7435 21.2603C77.3981 20.9749 77.9693 20.5718 78.4561 20.0514L78.3059 19.9109ZM76.6145 21.2194L80.6135 27.8105L80.7894 27.7037L76.7904 21.1126L76.6145 21.2194ZM80.7015 27.6543H76.9493V27.86H80.7015V27.6543ZM77.037 27.7033L73.4329 21.8281L73.2575 21.9357L76.8616 27.8109L77.037 27.7033ZM73.3452 21.7791H69.9385V21.9848H73.3452V21.7791ZM69.8357 21.8819V27.7571H70.0414V21.8819H69.8357ZM69.9385 27.6543H66.5319V27.86H69.9385V27.6543ZM69.9385 18.9978H74.2092V18.7921H69.9385V18.9978ZM74.2092 18.9978C74.6583 18.9978 75.0587 18.8677 75.4064 18.6069L75.283 18.4424C74.9725 18.6753 74.6157 18.7921 74.2092 18.7921V18.9978ZM75.409 18.605C75.752 18.3306 76.0247 17.9716 76.228 17.531L76.0412 17.4448C75.8496 17.8599 75.5958 18.1921 75.2804 18.4443L75.409 18.605ZM76.228 17.531C76.4325 17.088 76.5337 16.5959 76.5337 16.0561H76.328C76.328 16.5695 76.2318 17.0319 76.0412 17.4448L76.228 17.531ZM76.5337 16.0561C76.5337 15.4822 76.4155 14.9788 76.1751 14.5493L75.9956 14.6499C76.2159 15.0434 76.328 15.5108 76.328 16.0561H76.5337ZM76.1759 14.5509C75.9385 14.11 75.6317 13.7597 75.2545 13.5026L75.1387 13.6725C75.4856 13.909 75.7712 14.2335 75.9948 14.6484L76.1759 14.5509ZM75.2563 13.5038C74.894 13.2449 74.4947 13.1144 74.061 13.1144V13.3201C74.4504 13.3201 74.8081 13.4364 75.1368 13.6712L75.2563 13.5038ZM74.061 13.1144H69.9385V13.3201H74.061V13.1144ZM69.8357 13.2172V18.8949H70.0414V13.2172H69.8357ZM82.9489 27.7571H82.8461V27.86H82.9489V27.7571ZM82.9489 10.2303V10.1274H82.8461V10.2303H82.9489ZM86.3555 10.2303H86.4584V10.1274H86.3555V10.2303ZM86.3555 27.7571V27.86H86.4584V27.7571H86.3555ZM83.0518 27.7571V10.2303H82.8461V27.7571H83.0518ZM82.9489 10.3331H86.3555V10.1274H82.9489V10.3331ZM86.2527 10.2303V27.7571H86.4584V10.2303H86.2527ZM86.3555 27.6543H82.9489V27.86H86.3555V27.6543ZM103.12 13.2172V13.3201H103.223V13.2172H103.12ZM97.5167 13.2172V13.1144H97.4138V13.2172H97.5167ZM97.5167 27.7571V27.86H97.6195V27.7571H97.5167ZM94.1347 27.7571H94.0319V27.86H94.1347V27.7571ZM94.1347 13.2172H94.2376V13.1144H94.1347V13.2172ZM88.5311 13.2172H88.4282V13.3201H88.5311V13.2172ZM88.5311 10.2303V10.1274H88.4282V10.2303H88.5311ZM103.12 10.2303H103.223V10.1274H103.12V10.2303ZM103.12 13.1144H97.5167V13.3201H103.12V13.1144ZM97.4138 13.2172V27.7571H97.6195V13.2172H97.4138ZM97.5167 27.6543H94.1347V27.86H97.5167V27.6543ZM94.2376 27.7571V13.2172H94.0319V27.7571H94.2376ZM94.1347 13.1144H88.5311V13.3201H94.1347V13.1144ZM88.6339 13.2172V10.2303H88.4282V13.2172H88.6339ZM88.5311 10.3331H103.12V10.1274H88.5311V10.3331ZM103.018 10.2303V13.2172H103.223V10.2303H103.018ZM117.466 24.7701H117.569V24.6673H117.466V24.7701ZM117.466 27.7571V27.86H117.569V27.7571H117.466ZM105.296 27.7571H105.193V27.86H105.296V27.7571ZM105.296 10.2303V10.1274H105.193V10.2303H105.296ZM117.244 10.2303H117.347V10.1274H117.244V10.2303ZM117.244 13.2172V13.3201H117.347V13.2172H117.244ZM108.702 13.2172V13.1144H108.6V13.2172H108.702ZM108.702 17.4385H108.6V17.5413H108.702V17.4385ZM116.084 17.4385H116.186V17.3356H116.084V17.4385ZM116.084 20.2033V20.3061H116.186V20.2033H116.084ZM108.702 20.2033V20.1004H108.6V20.2033H108.702ZM108.702 24.7701H108.6V24.873H108.702V24.7701ZM117.363 24.7701V27.7571H117.569V24.7701H117.363ZM117.466 27.6543H105.296V27.86H117.466V27.6543ZM105.399 27.7571V10.2303H105.193V27.7571H105.399ZM105.296 10.3331H117.244V10.1274H105.296V10.3331ZM117.141 10.2303V13.2172H117.347V10.2303H117.141ZM117.244 13.1144H108.702V13.3201H117.244V13.1144ZM108.6 13.2172V17.4385H108.805V13.2172H108.6ZM108.702 17.5413H116.084V17.3356H108.702V17.5413ZM115.981 17.4385V20.2033H116.186V17.4385H115.981ZM116.084 20.1004H108.702V20.3061H116.084V20.1004ZM108.6 20.2033V24.7701H108.805V20.2033H108.6ZM108.702 24.873H117.466V24.6673H108.702V24.873Z" fill="#4265DF" fill-opacity="0.17"/>
</g>
<mask id="mask2_1606_78" style="mask-type:luminance" maskUnits="userSpaceOnUse" x="1" y="31" width="104" height="20">
<path d="M104.914 31.9743H1.64569V50.0772H104.914V31.9743Z" fill="white"/>
<path d="M13.9968 46.7816V49.7686H1.82672V32.2417H13.7746V35.2287H5.23335V39.4499H12.6144V42.2147H5.23335V46.7816H13.9968ZM20.0593 38.5119V49.7686H16.6527V32.2417H19.3681L28.4277 43.7946V32.2664H31.8344V49.7686H28.9955L20.0593 38.5119ZM42.7626 49.892C41.6271 49.892 40.5491 49.6616 39.5288 49.2008C38.5249 48.74 37.6362 48.1064 36.8627 47.3C36.1057 46.4771 35.5133 45.5226 35.0854 44.4365C34.6575 43.3503 34.4435 42.1736 34.4435 40.9064C34.4435 39.705 34.6575 38.5777 35.0854 37.5245C35.5133 36.4547 36.1139 35.5167 36.8874 34.7103C37.6609 33.9039 38.5661 33.2703 39.6029 32.8095C40.6397 32.3487 41.767 32.1183 42.9848 32.1183C44.6305 32.1183 46.0376 32.4721 47.2061 33.1798C48.391 33.871 49.2797 34.7926 49.8721 35.9446L47.3295 37.8207C46.8851 36.9485 46.2598 36.2819 45.4534 35.8211C44.6634 35.3603 43.7994 35.1299 42.8614 35.1299C42.1208 35.1299 41.4461 35.2863 40.8371 35.599C40.2282 35.9117 39.7016 36.3395 39.2573 36.8826C38.8129 37.4257 38.4673 38.0511 38.2205 38.7587C37.9901 39.4664 37.8749 40.2152 37.8749 41.0051C37.8749 41.8445 37.9983 42.6179 38.2451 43.3256C38.5085 44.0333 38.8705 44.6504 39.3313 45.177C39.8086 45.7037 40.3599 46.1233 40.9853 46.436C41.6106 46.7322 42.3018 46.8803 43.0589 46.8803C43.9475 46.8803 44.7951 46.6499 45.6015 46.1891C46.4243 45.7283 47.1896 45.0536 47.8973 44.1649V47.5222C46.4326 49.1021 44.721 49.892 42.7626 49.892ZM47.6504 43.2515H44.1203V40.7583H50.4646V49.7686H47.6504V43.2515ZM53.3678 49.7686V32.2417H56.7744V46.7816H65.7107V49.7686H53.3678ZM67.7839 49.7686V32.2417H71.1905V49.7686H67.7839ZM85.2893 36.8333C85.1741 36.7181 84.9602 36.5617 84.6475 36.3642C84.3513 36.1667 83.981 35.9775 83.5366 35.7965C83.1087 35.6154 82.6397 35.4591 82.1296 35.3274C81.6194 35.1793 81.101 35.1053 80.5744 35.1053C79.6528 35.1053 78.9533 35.2781 78.4761 35.6237C78.0153 35.9693 77.7849 36.4547 77.7849 37.0801C77.7849 37.5574 77.933 37.9359 78.2292 38.2157C78.5254 38.4954 78.9698 38.7341 79.5622 38.9315C80.1547 39.129 80.8953 39.343 81.784 39.5734C82.936 39.8531 83.9316 40.1987 84.7709 40.6102C85.6267 41.0051 86.2768 41.5318 86.7211 42.1901C87.1819 42.8319 87.4123 43.6877 87.4123 44.7574C87.4123 45.6954 87.2395 46.5018 86.8939 47.1766C86.5483 47.8349 86.071 48.3697 85.4621 48.7811C84.8532 49.1926 84.162 49.497 83.3885 49.6945C82.615 49.8755 81.7922 49.9661 80.92 49.9661C80.0477 49.9661 79.1755 49.8755 78.3033 49.6945C77.431 49.5135 76.5917 49.2584 75.7853 48.9293C74.9789 48.5837 74.2384 48.1722 73.5636 47.695L75.0694 44.7574C75.2176 44.9055 75.4809 45.103 75.8594 45.3498C76.2379 45.5802 76.6987 45.8189 77.2418 46.0657C77.7849 46.2961 78.3773 46.4936 79.0192 46.6582C79.661 46.8227 80.311 46.905 80.9693 46.905C81.8909 46.905 82.5904 46.7487 83.0676 46.436C83.5449 46.1233 83.7835 45.679 83.7835 45.103C83.7835 44.5763 83.5942 44.1649 83.2157 43.8687C82.8372 43.5725 82.3106 43.3174 81.6358 43.1034C80.9611 42.873 80.1629 42.6262 79.2413 42.3629C78.1387 42.0502 77.2171 41.7046 76.4765 41.3261C75.736 40.9311 75.1846 40.4374 74.8226 39.8449C74.4605 39.2525 74.2795 38.5119 74.2795 37.6232C74.2795 36.4218 74.5593 35.4179 75.1188 34.6115C75.6948 33.7887 76.4683 33.1715 77.4393 32.7601C78.4102 32.3322 79.4882 32.1183 80.6731 32.1183C81.496 32.1183 82.2694 32.2088 82.9936 32.3898C83.7341 32.5709 84.4253 32.8095 85.0672 33.1057C85.709 33.4019 86.285 33.7229 86.7952 34.0685L85.2893 36.8333ZM104.724 32.2417V49.7686H101.342V42.2888H93.3931V49.7686H89.9865V32.2417H93.3931V39.3265H101.342V32.2417H104.724Z" fill="black"/>
</mask>
<g mask="url(#mask2_1606_78)">
<path d="M13.9968 46.7816H14.0996V46.6788H13.9968V46.7816ZM13.9968 49.7686V49.8714H14.0996V49.7686H13.9968ZM1.82673 49.7686H1.72388V49.8714H1.82673V49.7686ZM1.82673 32.2417V32.1389H1.72388V32.2417H1.82673ZM13.7746 32.2417H13.8775V32.1389H13.7746V32.2417ZM13.7746 35.2287V35.3316H13.8775V35.2287H13.7746ZM5.23336 35.2287V35.1258H5.13051V35.2287H5.23336ZM5.23336 39.45H5.13051V39.5528H5.23336V39.45ZM12.6144 39.45H12.7172V39.3471H12.6144V39.45ZM12.6144 42.2148V42.3176H12.7172V42.2148H12.6144ZM5.23336 42.2148V42.1119H5.13051V42.2148H5.23336ZM5.23336 46.7816H5.13051V46.8845H5.23336V46.7816ZM13.8939 46.7816V49.7686H14.0996V46.7816H13.8939ZM13.9968 49.6657H1.82673V49.8714H13.9968V49.6657ZM1.92959 49.7686V32.2417H1.72388V49.7686H1.92959ZM1.82673 32.3446H13.7746V32.1389H1.82673V32.3446ZM13.6718 32.2417V35.2287H13.8775V32.2417H13.6718ZM13.7746 35.1258H5.23336V35.3316H13.7746V35.1258ZM5.13051 35.2287V39.45H5.33622V35.2287H5.13051ZM5.23336 39.5528H12.6144V39.3471H5.23336V39.5528ZM12.5115 39.45V42.2148H12.7172V39.45H12.5115ZM12.6144 42.1119H5.23336V42.3176H12.6144V42.1119ZM5.13051 42.2148V46.7816H5.33622V42.2148H5.13051ZM5.23336 46.8845H13.9968V46.6788H5.23336V46.8845ZM20.0593 38.5119L20.1398 38.4479L19.9564 38.2169V38.5119H20.0593ZM20.0593 49.7686V49.8714H20.1621V49.7686H20.0593ZM16.6527 49.7686H16.5498V49.8714H16.6527V49.7686ZM16.6527 32.2417V32.1389H16.5498V32.2417H16.6527ZM19.3681 32.2417L19.449 32.1783L19.4181 32.1389H19.3681V32.2417ZM28.4277 43.7946L28.3468 43.8581L28.5306 44.0925V43.7946H28.4277ZM28.4277 32.2664V32.1636H28.3249V32.2664H28.4277ZM31.8344 32.2664H31.9372V32.1636H31.8344V32.2664ZM31.8344 49.7686V49.8714H31.9372V49.7686H31.8344ZM28.9955 49.7686L28.9149 49.8326L28.9458 49.8714H28.9955V49.7686ZM19.9564 38.5119V49.7686H20.1621V38.5119H19.9564ZM20.0593 49.6657H16.6527V49.8714H20.0593V49.6657ZM16.7555 49.7686V32.2417H16.5498V49.7686H16.7555ZM16.6527 32.3446H19.3681V32.1389H16.6527V32.3446ZM19.2871 32.3052L28.3468 43.8581L28.5087 43.7312L19.449 32.1783L19.2871 32.3052ZM28.5306 43.7946V32.2664H28.3249V43.7946H28.5306ZM28.4277 32.3693H31.8344V32.1636H28.4277V32.3693ZM31.7315 32.2664V49.7686H31.9372V32.2664H31.7315ZM31.8344 49.6657H28.9955V49.8714H31.8344V49.6657ZM29.0761 49.7046L20.1398 38.4479L19.9787 38.5759L28.9149 49.8326L29.0761 49.7046ZM39.5288 49.2008L39.4858 49.2943L39.4864 49.2945L39.5288 49.2008ZM36.8628 47.3L36.7871 47.3696L36.7878 47.3705L36.7885 47.3712L36.8628 47.3ZM35.0854 37.5245L35.1806 37.5631L35.1808 37.5626L35.0854 37.5245ZM47.2061 33.1798L47.1527 33.2677L47.1535 33.2682L47.1542 33.2687L47.2061 33.1798ZM49.8721 35.9446L49.9331 36.0274L50.0036 35.9753L49.9636 35.8976L49.8721 35.9446ZM47.3295 37.8207L47.2377 37.8674L47.2929 37.9755L47.3905 37.9035L47.3295 37.8207ZM45.4534 35.8212L45.4015 35.91L45.4023 35.9104L45.4534 35.8212ZM38.2205 38.7588L38.1233 38.7249L38.123 38.7258L38.1227 38.7269L38.2205 38.7588ZM38.2452 43.3256L38.148 43.3595L38.1484 43.3605L38.1487 43.3615L38.2452 43.3256ZM39.3313 45.177L39.2539 45.2448L39.2545 45.2454L39.2551 45.2462L39.3313 45.177ZM40.9853 46.436L40.9392 46.528L40.9402 46.5285L40.9411 46.529L40.9853 46.436ZM45.6015 46.1892L45.5512 46.0994L45.5504 46.0999L45.6015 46.1892ZM47.8973 44.1649H48.0001V43.8707L47.8167 44.1008L47.8973 44.1649ZM47.8973 47.5222L47.9727 47.5921L48.0001 47.5625V47.5222H47.8973ZM47.6504 43.2516H47.7533V43.1487H47.6504V43.2516ZM44.1204 43.2516H44.0175V43.3544H44.1204V43.2516ZM44.1204 40.7583V40.6554H44.0175V40.7583H44.1204ZM50.4646 40.7583H50.5674V40.6554H50.4646V40.7583ZM50.4646 49.7686V49.8714H50.5674V49.7686H50.4646ZM47.6504 49.7686H47.5476V49.8714H47.6504V49.7686ZM42.7626 49.7892C41.6414 49.7892 40.578 49.5617 39.5711 49.1071L39.4864 49.2945C40.5202 49.7615 41.6127 49.9949 42.7626 49.9949V49.7892ZM39.5717 49.1073C38.5796 48.652 37.7016 48.026 36.9369 47.2288L36.7885 47.3712C37.5708 48.1868 38.4701 48.8281 39.4858 49.2943L39.5717 49.1073ZM36.9384 47.2304C36.1903 46.4173 35.6045 45.4737 35.181 44.3987L34.9896 44.4742C35.4219 45.5716 36.0211 46.537 36.7871 47.3696L36.9384 47.2304ZM35.181 44.3987C34.7583 43.3256 34.5464 42.1618 34.5464 40.9064H34.3407C34.3407 42.1854 34.5566 43.375 34.9896 44.4742L35.181 44.3987ZM34.5464 40.9064C34.5464 39.7176 34.758 38.6034 35.1806 37.5631L34.99 37.4858C34.5569 38.552 34.3407 39.6925 34.3407 40.9064H34.5464ZM35.1808 37.5626C35.604 36.5048 36.1976 35.5781 36.9616 34.7815L36.8132 34.6391C36.0302 35.4553 35.4224 36.4047 34.9898 37.4863L35.1808 37.5626ZM36.9616 34.7815C37.7257 33.9848 38.6198 33.359 39.6446 32.9035L39.561 32.7155C38.5123 33.1816 37.596 33.823 36.8132 34.6391L36.9616 34.7815ZM39.6446 32.9035C40.6673 32.449 41.7803 32.2212 42.9848 32.2212V32.0154C41.7536 32.0154 40.6119 32.2484 39.561 32.7155L39.6446 32.9035ZM42.9848 32.2212C44.6155 32.2212 46.0034 32.5717 47.1527 33.2677L47.2593 33.0918C46.0718 32.3726 44.6454 32.0154 42.9848 32.0154V32.2212ZM47.1542 33.2687C48.3232 33.9506 49.1977 34.8581 49.7806 35.9916L49.9636 35.8976C49.3615 34.7271 48.4587 33.7914 47.2578 33.0909L47.1542 33.2687ZM49.811 35.8618L47.2684 37.7379L47.3905 37.9035L49.9331 36.0274L49.811 35.8618ZM47.4211 37.774C46.9682 36.8849 46.3291 36.2032 45.5044 35.7319L45.4023 35.9104C46.1904 36.3607 46.802 37.012 47.2377 37.8674L47.4211 37.774ZM45.5051 35.7323C44.699 35.2621 43.8171 35.0271 42.8614 35.0271V35.2328C43.7816 35.2328 44.6277 35.4586 45.4015 35.91L45.5051 35.7323ZM42.8614 35.0271C42.1058 35.0271 41.4147 35.1867 40.7901 35.5074L40.8841 35.6905C41.4773 35.3859 42.1357 35.2328 42.8614 35.2328V35.0271ZM40.7901 35.5074C40.1683 35.8268 39.6306 36.2638 39.1777 36.8175L39.3368 36.9478C39.7725 36.4154 40.2881 35.9965 40.8841 35.6905L40.7901 35.5074ZM39.1777 36.8175C38.7252 37.3705 38.3738 38.0067 38.1233 38.7249L38.3176 38.7926C38.5607 38.0955 38.9006 37.481 39.3368 36.9478L39.1777 36.8175ZM38.1227 38.7269C37.8886 39.4454 37.772 40.205 37.772 41.0052H37.9777C37.9777 40.2254 38.0914 39.4874 38.3182 38.7906L38.1227 38.7269ZM37.772 41.0052C37.772 41.8547 37.8969 42.6398 38.148 43.3595L38.3423 43.2918C38.0996 42.5962 37.9777 41.8343 37.9777 41.0052H37.772ZM38.1487 43.3615C38.416 44.0799 38.7842 44.708 39.2539 45.2448L39.4087 45.1093C38.9567 44.5928 38.6008 43.9867 38.3415 43.2897L38.1487 43.3615ZM39.2551 45.2462C39.7407 45.782 40.3023 46.2095 40.9392 46.528L41.0312 46.3441C40.4174 46.0371 39.8764 45.6253 39.4074 45.1079L39.2551 45.2462ZM40.9411 46.529C41.5815 46.8323 42.2881 46.9832 43.0589 46.9832V46.7775C42.3155 46.7775 41.6396 46.6322 41.0293 46.343L40.9411 46.529ZM43.0589 46.9832C43.9663 46.9832 44.8313 46.7478 45.6525 46.2784L45.5504 46.0999C44.7588 46.5521 43.9287 46.7775 43.0589 46.7775V46.9832ZM45.6517 46.279C46.4883 45.8104 47.2634 45.126 47.9777 44.229L47.8167 44.1008C47.1158 44.9812 46.3603 45.6463 45.5512 46.0994L45.6517 46.279ZM47.7944 44.1649V47.5222H48.0001V44.1649H47.7944ZM47.8218 47.4522C46.3744 49.0135 44.6894 49.7892 42.7626 49.7892V49.9949C44.7526 49.9949 46.4907 49.1906 47.9727 47.5921L47.8218 47.4522ZM47.6504 43.1487H44.1204V43.3544H47.6504V43.1487ZM44.2232 43.2516V40.7583H44.0175V43.2516H44.2232ZM44.1204 40.8612H50.4646V40.6554H44.1204V40.8612ZM50.3617 40.7583V49.7686H50.5674V40.7583H50.3617ZM50.4646 49.6657H47.6504V49.8714H50.4646V49.6657ZM47.7533 49.7686V43.2516H47.5476V49.7686H47.7533ZM53.3678 49.7686H53.265V49.8714H53.3678V49.7686ZM53.3678 32.2417V32.1389H53.265V32.2417H53.3678ZM56.7745 32.2417H56.8773V32.1389H56.7745V32.2417ZM56.7745 46.7816H56.6716V46.8845H56.7745V46.7816ZM65.7107 46.7816H65.8135V46.6788H65.7107V46.7816ZM65.7107 49.7686V49.8714H65.8135V49.7686H65.7107ZM53.4707 49.7686V32.2417H53.265V49.7686H53.4707ZM53.3678 32.3446H56.7745V32.1389H53.3678V32.3446ZM56.6716 32.2417V46.7816H56.8773V32.2417H56.6716ZM56.7745 46.8845H65.7107V46.6788H56.7745V46.8845ZM65.6078 46.7816V49.7686H65.8135V46.7816H65.6078ZM65.7107 49.6657H53.3678V49.8714H65.7107V49.6657ZM67.7839 49.7686H67.681V49.8714H67.7839V49.7686ZM67.7839 32.2417V32.1389H67.681V32.2417H67.7839ZM71.1905 32.2417H71.2934V32.1389H71.1905V32.2417ZM71.1905 49.7686V49.8714H71.2934V49.7686H71.1905ZM67.8867 49.7686V32.2417H67.681V49.7686H67.8867ZM67.7839 32.3446H71.1905V32.1389H67.7839V32.3446ZM71.0876 32.2417V49.7686H71.2934V32.2417H71.0876ZM71.1905 49.6657H67.7839V49.8714H71.1905V49.6657ZM85.2893 36.8333L85.2166 36.906L85.3138 37.0033L85.3796 36.8824L85.2893 36.8333ZM84.6475 36.3642L84.5904 36.4498L84.5914 36.4505L84.5926 36.4512L84.6475 36.3642ZM83.5366 35.7965L83.4965 35.8912L83.4979 35.8917L83.5366 35.7965ZM82.1296 35.3274L82.1009 35.4262L82.1023 35.4267L82.1038 35.427L82.1296 35.3274ZM78.4761 35.6237L78.4157 35.5404L78.4151 35.5409L78.4144 35.5414L78.4761 35.6237ZM81.784 39.5734L81.7581 39.673L81.7589 39.6732L81.7597 39.6734L81.784 39.5734ZM84.7709 40.6102L84.7257 40.7026L84.7267 40.7031L84.7278 40.7036L84.7709 40.6102ZM86.7211 42.1901L86.6358 42.2476L86.6367 42.2488L86.6376 42.25L86.7211 42.1901ZM86.8939 47.1766L86.9849 47.2244L86.9855 47.2235L86.8939 47.1766ZM83.3885 49.6945L83.412 49.7947L83.413 49.7944L83.4139 49.7942L83.3885 49.6945ZM75.7853 48.9293L75.7448 49.0238L75.7456 49.0242L75.7465 49.0245L75.7853 48.9293ZM73.5636 47.695L73.4721 47.6481L73.4313 47.7275L73.5042 47.7789L73.5636 47.695ZM75.0694 44.7574L75.1422 44.6847L75.0423 44.5848L74.9779 44.7105L75.0694 44.7574ZM75.8594 45.3498L75.8032 45.436L75.8046 45.4369L75.8059 45.4377L75.8594 45.3498ZM77.2418 46.0657L77.1992 46.1593L77.2004 46.1599L77.2016 46.1605L77.2418 46.0657ZM81.6358 43.1034L81.6026 43.2007L81.6037 43.2012L81.6048 43.2015L81.6358 43.1034ZM79.2413 42.3629L79.2696 42.2639H79.2694L79.2413 42.3629ZM76.4765 41.3261L76.4281 41.4168L76.4289 41.4172L76.4297 41.4176L76.4765 41.3261ZM75.1188 34.6116L75.0346 34.5526L75.0343 34.5529L75.1188 34.6116ZM77.4393 32.7601L77.4794 32.8549L77.4801 32.8546L77.4807 32.8542L77.4393 32.7601ZM82.9936 32.3898L82.9686 32.4896L82.9691 32.4897L82.9936 32.3898ZM86.7952 34.0685L86.8855 34.1176L86.9301 34.0357L86.8529 33.9833L86.7952 34.0685ZM85.3621 36.7606C85.2381 36.6365 85.0155 36.475 84.7024 36.2773L84.5926 36.4512C84.9049 36.6484 85.1102 36.7996 85.2166 36.906L85.3621 36.7606ZM84.7046 36.2787C84.401 36.0762 84.0241 35.884 83.5754 35.7012L83.4979 35.8917C83.9378 36.071 84.3015 36.2573 84.5904 36.4498L84.7046 36.2787ZM83.5768 35.7017C83.1436 35.5184 82.6697 35.3606 82.1553 35.2279L82.1038 35.427C82.6098 35.5576 83.0739 35.7123 83.4965 35.8912L83.5768 35.7017ZM82.1583 35.2287C81.6388 35.0779 81.1108 35.0024 80.5744 35.0024V35.2081C81.0912 35.2081 81.6 35.2807 82.1009 35.4262L82.1583 35.2287ZM80.5744 35.0024C79.6425 35.0024 78.918 35.1767 78.4157 35.5404L78.5363 35.707C78.9887 35.3795 79.663 35.2081 80.5744 35.2081V35.0024ZM78.4144 35.5414C77.9252 35.9083 77.682 36.4255 77.682 37.0801H77.8877C77.8877 36.4839 78.1054 36.0303 78.5378 35.706L78.4144 35.5414ZM77.682 37.0801C77.682 37.5804 77.8383 37.9879 78.1586 38.2904L78.2999 38.1409C78.0277 37.8839 77.8877 37.5343 77.8877 37.0801H77.682ZM78.1586 38.2904C78.4699 38.5845 78.9299 38.8292 79.5297 39.0292L79.5947 38.8339C79.0097 38.6389 78.5809 38.4064 78.2999 38.1409L78.1586 38.2904ZM79.5297 39.0292C80.1252 39.2276 80.8681 39.4422 81.7581 39.673L81.8098 39.4738C80.9224 39.2437 80.1842 39.0305 79.5947 38.8339L79.5297 39.0292ZM81.7597 39.6734C82.9062 39.9518 83.8946 40.2951 84.7257 40.7026L84.8162 40.5178C83.9686 40.1024 82.9657 39.7545 81.8082 39.4734L81.7597 39.6734ZM84.7278 40.7036C85.5697 41.0922 86.2038 41.6076 86.6358 42.2476L86.8064 42.1326C86.3497 41.456 85.6837 40.9181 84.814 40.5168L84.7278 40.7036ZM86.6376 42.25C87.082 42.8691 87.3094 43.7017 87.3094 44.7574H87.5152C87.5152 43.6737 87.2818 42.7947 86.8046 42.1301L86.6376 42.25ZM87.3094 44.7574C87.3094 45.6829 87.1389 46.4725 86.8024 47.1297L86.9855 47.2235C87.34 46.5312 87.5152 45.708 87.5152 44.7574H87.3094ZM86.8028 47.1288C86.465 47.7722 85.9992 48.2941 85.4045 48.6959L85.5197 48.8664C86.1428 48.4453 86.6315 47.8975 86.9849 47.2244L86.8028 47.1288ZM85.4045 48.6959C84.8062 49.1002 84.1261 49.4 83.363 49.5949L83.4139 49.7942C84.1979 49.594 84.9002 49.285 85.5197 48.8664L85.4045 48.6959ZM83.3651 49.5943C82.6 49.7734 81.7851 49.8632 80.92 49.8632V50.0689C81.7993 50.0689 82.6301 49.9777 83.412 49.7947L83.3651 49.5943ZM80.92 49.8632C80.0549 49.8632 79.1897 49.7734 78.3242 49.5938L78.2824 49.7952C79.1613 49.9777 80.0405 50.0689 80.92 50.0689V49.8632ZM78.3242 49.5938C77.4579 49.414 76.6246 49.1608 75.8242 48.834L75.7465 49.0245C76.5588 49.356 77.4041 49.613 78.2824 49.7952L78.3242 49.5938ZM75.8259 48.8347C75.0256 48.4918 74.2915 48.0839 73.623 47.6111L73.5042 47.7789C74.1852 48.2606 74.9321 48.6755 75.7448 49.0238L75.8259 48.8347ZM73.6552 47.7419L75.161 44.8043L74.9779 44.7105L73.4721 47.6481L73.6552 47.7419ZM74.9967 44.8301C75.1529 44.9863 75.4239 45.1887 75.8032 45.436L75.9156 45.2636C75.5378 45.0173 75.2823 44.8247 75.1422 44.6847L74.9967 44.8301ZM75.8059 45.4377C76.1889 45.6709 76.6535 45.9113 77.1992 46.1593L77.2844 45.9721C76.7439 45.7264 76.2869 45.4896 75.9129 45.262L75.8059 45.4377ZM77.2016 46.1605C77.75 46.393 78.3474 46.5922 78.9937 46.7579L79.0447 46.5585C78.4073 46.3951 77.8197 46.1992 77.2819 45.971L77.2016 46.1605ZM78.9937 46.7579C79.6437 46.9245 80.3024 47.0079 80.9693 47.0079V46.8022C80.3197 46.8022 79.6783 46.721 79.0447 46.5585L78.9937 46.7579ZM80.9693 47.0079C81.8998 47.0079 82.6226 46.8505 83.124 46.522L83.0113 46.35C82.5582 46.6469 81.8821 46.8022 80.9693 46.8022V47.0079ZM83.124 46.522C83.6306 46.1902 83.8864 45.7132 83.8864 45.103H83.6806C83.6806 45.6447 83.4592 46.0565 83.0113 46.35L83.124 46.522ZM83.8864 45.103C83.8864 44.5482 83.6852 44.1055 83.2791 43.7876L83.1524 43.9498C83.5033 44.2244 83.6806 44.6045 83.6806 45.103H83.8864ZM83.2791 43.7876C82.8875 43.4812 82.3483 43.2214 81.6669 43.0054L81.6048 43.2015C82.2728 43.4134 82.7869 43.6637 83.1524 43.9498L83.2791 43.7876ZM81.6691 43.0061C80.9923 42.775 80.1924 42.5276 79.2696 42.2639L79.2131 42.4618C80.1335 42.7247 80.9299 42.9711 81.6026 43.2007L81.6691 43.0061ZM79.2694 42.2639C78.171 41.9525 77.2562 41.609 76.5233 41.2345L76.4297 41.4176C77.178 41.8001 78.1064 42.1479 79.2133 42.4618L79.2694 42.2639ZM76.5249 41.2354C75.7972 40.8472 75.261 40.3651 74.9103 39.7913L74.7349 39.8985C75.1082 40.5097 75.6748 41.015 76.4281 41.4168L76.5249 41.2354ZM74.9103 39.7913C74.5606 39.2189 74.3824 38.4982 74.3824 37.6232H74.1766C74.1766 38.5256 74.3605 39.286 74.7349 39.8985L74.9103 39.7913ZM74.3824 37.6232C74.3824 36.4381 74.6581 35.4558 75.2033 34.6702L75.0343 34.5529C74.4603 35.3801 74.1766 36.4056 74.1766 37.6232H74.3824ZM75.2031 34.6705C75.7674 33.8643 76.5253 33.2591 77.4794 32.8549L77.3992 32.6654C76.4113 33.084 75.6222 33.7131 75.0346 34.5526L75.2031 34.6705ZM77.4807 32.8542C78.4372 32.4327 79.5007 32.2212 80.6731 32.2212V32.0154C79.4755 32.0154 78.3833 32.2318 77.3978 32.666L77.4807 32.8542ZM80.6731 32.2212C81.4883 32.2212 82.2534 32.3108 82.9686 32.4896L83.0185 32.2901C82.2854 32.1068 81.5035 32.0154 80.6731 32.0154V32.2212ZM82.9691 32.4897C83.7038 32.6693 84.3887 32.9059 85.0241 33.1991L85.1103 33.0123C84.462 32.7131 83.7645 32.4724 83.0179 32.29L82.9691 32.4897ZM85.0241 33.1991C85.6615 33.4933 86.2325 33.8115 86.7375 34.1536L86.8529 33.9833C86.3374 33.6342 85.7564 33.3106 85.1103 33.0123L85.0241 33.1991ZM86.7048 34.0193L85.199 36.7841L85.3796 36.8824L86.8855 34.1176L86.7048 34.0193ZM104.724 32.2417H104.827V32.1389H104.724V32.2417ZM104.724 49.7686V49.8714H104.827V49.7686H104.724ZM101.342 49.7686H101.239V49.8714H101.342V49.7686ZM101.342 42.2888H101.445V42.186H101.342V42.2888ZM93.3931 42.2888V42.186H93.2903V42.2888H93.3931ZM93.3931 49.7686V49.8714H93.496V49.7686H93.3931ZM89.9865 49.7686H89.8837V49.8714H89.9865V49.7686ZM89.9865 32.2417V32.1389H89.8837V32.2417H89.9865ZM93.3931 32.2417H93.496V32.1389H93.3931V32.2417ZM93.3931 39.3265H93.2903V39.4294H93.3931V39.3265ZM101.342 39.3265V39.4294H101.445V39.3265H101.342ZM101.342 32.2417V32.1389H101.239V32.2417H101.342ZM104.621 32.2417V49.7686H104.827V32.2417H104.621ZM104.724 49.6657H101.342V49.8714H104.724V49.6657ZM101.445 49.7686V42.2888H101.239V49.7686H101.445ZM101.342 42.186H93.3931V42.3917H101.342V42.186ZM93.2903 42.2888V49.7686H93.496V42.2888H93.2903ZM93.3931 49.6657H89.9865V49.8714H93.3931V49.6657ZM90.0894 49.7686V32.2417H89.8837V49.7686H90.0894ZM89.9865 32.3446H93.3931V32.1389H89.9865V32.3446ZM93.2903 32.2417V39.3265H93.496V32.2417H93.2903ZM93.3931 39.4294H101.342V39.2237H93.3931V39.4294ZM101.445 39.3265V32.2417H101.239V39.3265H101.445ZM101.342 32.3446H104.724V32.1389H101.342V32.3446Z" fill="#4265DF" fill-opacity="0.17"/>
</g>
<path d="M39.4576 17.8077L39.3942 20.8515L42.2308 21.9576L39.1869 21.8942L38.0811 24.7308L38.1442 21.6869L35.3077 20.5811L38.3515 20.6442L39.4576 17.8077Z" fill="#5775EB" fill-opacity="0.74"/>
<path d="M11.7388 31.6539L12.7698 33.6168L15.2308 33.4445L12.9876 34.3466L13.1843 36.5L12.1533 34.5373L9.69232 34.7094L11.9357 33.8073L11.7388 31.6539Z" fill="#5775EB" fill-opacity="0.74"/>
<path d="M23.5789 6.03845L23.8575 8.10367L25.6154 8.50849L23.8452 8.83344L23.4982 10.8846L23.2197 8.81939L21.4615 8.41431L23.2317 8.08936L23.5789 6.03845Z" fill="#5775EB" fill-opacity="0.74"/>
<g filter="url(#filter0_f_1606_78)">
<path d="M97 0.5C97 15.964 90.732 28.5 83 28.5C75.268 28.5 69 15.964 69 0.5C69 -14.964 75.268 -27.5 83 -27.5C90.732 -27.5 97 -14.964 97 0.5Z" fill="#7338D2" fill-opacity="0.64"/>
</g>
<g filter="url(#filter1_f_1606_78)">
<path d="M27 90.5C27 105.964 20.732 118.5 13 118.5C5.26801 118.5 -1 105.964 -1 90.5C-1 75.036 5.26801 62.5 13 62.5C20.732 62.5 27 75.036 27 90.5Z" fill="#3D5ED1" fill-opacity="0.64"/>
</g>
<path d="M32.4514 54.5201H21.6H21.4971V35.9544H20.88V23.7659L21.6 21.5544L22.2171 23.7659H22.32V21.0916L24.0686 17.6973L24.12 14.377L26.9486 7.72014V7.61728C26.784 7.61728 26.7429 7.41156 26.7429 7.30871C26.7429 6.84585 26.8629 5.88584 27 5.45728C27.0514 5.25156 27.2743 6.67442 27.3086 7.30871C27.2263 7.55556 27.1029 7.61728 27.0514 7.61728V7.72014L29.9314 14.377V17.6973L31.6286 21.0916V23.7659H31.68L32.4 21.503L33.12 23.7659V35.9544H32.4514V36.0573V54.5201Z" fill="#5A7DF1"/>
<path d="M27.0514 7.72014L29.9314 14.377H24.12L26.9486 7.72014V7.61728C26.784 7.61728 26.7429 7.41156 26.7429 7.30871C26.7429 6.84585 26.8629 5.88584 27 5.45728C27.0514 5.25156 27.2743 6.67442 27.3086 7.30871C27.2263 7.55556 27.1029 7.61728 27.0514 7.61728V7.72014Z" fill="#272D73"/>
<path d="M23.6057 23.3343H22.9886V21.9971C22.9886 21.9148 23.0914 21.86 23.1429 21.8428H23.4514C23.5337 21.8428 23.5886 21.9457 23.6057 21.9971V23.3343Z" fill="#2D438D"/>
<path d="M25.0457 23.3343H24.4286V21.9971C24.4286 21.9148 24.5314 21.86 24.5829 21.8428H24.8914C24.9737 21.8428 25.0286 21.9457 25.0457 21.9971V23.3343Z" fill="#2D438D"/>
<path d="M26.5886 23.3343H25.9714V21.9971C25.9714 21.9148 26.0743 21.86 26.1257 21.8428H26.4343C26.5166 21.8428 26.5714 21.9457 26.5886 21.9971V23.3343Z" fill="#2D438D"/>
<path d="M28.0286 23.3343H27.4114V21.9971C27.4114 21.9148 27.5143 21.86 27.5657 21.8428H27.8743C27.9566 21.8428 28.0114 21.9457 28.0286 21.9971V23.3343Z" fill="#2D438D"/>
<path d="M29.5714 23.3343H28.9543V21.9971C28.9543 21.9148 29.0571 21.86 29.1086 21.8428H29.4171C29.4994 21.8428 29.5543 21.9457 29.5714 21.9971V23.3343Z" fill="#2D438D"/>
<path d="M31.0114 23.3343H30.3943V21.9971C30.3943 21.9148 30.4971 21.86 30.5486 21.8428H30.8571C30.9394 21.8428 30.9943 21.9457 31.0114 21.9971V23.3343Z" fill="#2D438D"/>
<path d="M25.4057 17.2979H24.6857V15.3628C24.9943 14.9 25.3058 15.1931 25.4057 15.3628V17.2979Z" fill="#2D438D"/>
<path d="M26.64 17.2979H25.92V15.3628C26.2286 14.9 26.54 15.1931 26.64 15.3628V17.2979Z" fill="#2D438D"/>
<path d="M27.9771 17.2979H27.2571V15.3628C27.5657 14.9 27.8772 15.1931 27.9771 15.3628V17.2979Z" fill="#2D438D"/>
<path d="M29.3143 17.2979H28.5943V15.3628C28.9029 14.9 29.2143 15.1931 29.3143 15.3628V17.2979Z" fill="#2D438D"/>
<path d="M23.6057 35.06H22.9886V33.7228C22.9886 33.6405 23.0914 33.5857 23.1429 33.5685H23.4514C23.5337 33.5685 23.5886 33.6714 23.6057 33.7228V35.06Z" fill="#2D438D"/>
<path d="M25.0457 35.06H24.4286V33.7228C24.4286 33.6405 24.5314 33.5857 24.5829 33.5685H24.8914C24.9737 33.5685 25.0286 33.6714 25.0457 33.7228V35.06Z" fill="#2D438D"/>
<path d="M26.5886 35.06H25.9714V33.7228C25.9714 33.6405 26.0743 33.5857 26.1257 33.5685H26.4343C26.5166 33.5685 26.5714 33.6714 26.5886 33.7228V35.06Z" fill="#2D438D"/>
<path d="M28.0286 35.06H27.4114V33.7228C27.4114 33.6405 27.5143 33.5857 27.5657 33.5685H27.8743C27.9566 33.5685 28.0114 33.6714 28.0286 33.7228V35.06Z" fill="#2D438D"/>
<path d="M29.5714 35.06H28.9543V33.7228C28.9543 33.6405 29.0571 33.5857 29.1086 33.5685H29.4171C29.4994 33.5685 29.5543 33.6714 29.5714 33.7228V35.06Z" fill="#2D438D"/>
<path d="M31.0114 35.06H30.3943V33.7228C30.3943 33.6405 30.4971 33.5857 30.5486 33.5685H30.8571C30.9394 33.5685 30.9943 33.6714 31.0114 33.7228V35.06Z" fill="#2D438D"/>
<path d="M23.0914 44.6649V38.685C23.0914 38.5349 23.1279 38.3629 23.2696 38.3134C23.3559 38.2832 23.4456 38.2938 23.5226 38.3228C23.663 38.3757 23.7086 38.5349 23.7086 38.685V44.6916C23.7086 44.8169 23.687 44.9536 23.5863 45.0282C23.4731 45.1118 23.3492 45.089 23.2496 45.0303C23.1271 44.9581 23.0914 44.807 23.0914 44.6649Z" fill="#2D438D"/>
<path d="M24.4286 44.6649V38.685C24.4286 38.5349 24.4651 38.3629 24.6067 38.3134C24.693 38.2832 24.7827 38.2938 24.8598 38.3228C25.0002 38.3757 25.0457 38.5349 25.0457 38.685V44.6916C25.0457 44.8169 25.0241 44.9536 24.9234 45.0282C24.8103 45.1118 24.6863 45.089 24.5868 45.0303C24.4643 44.9581 24.4286 44.807 24.4286 44.6649Z" fill="#2D438D"/>
<path d="M25.9714 44.6649V38.685C25.9714 38.5349 26.0079 38.3629 26.1496 38.3134C26.2359 38.2832 26.3256 38.2938 26.4026 38.3228C26.543 38.3757 26.5886 38.5349 26.5886 38.685V44.6916C26.5886 44.8169 26.567 44.9536 26.4663 45.0282C26.3531 45.1118 26.2292 45.089 26.1296 45.0303C26.0071 44.9581 25.9714 44.807 25.9714 44.6649Z" fill="#2D438D"/>
<path d="M27.5143 44.6649V38.685C27.5143 38.5349 27.5508 38.3629 27.6924 38.3134C27.7787 38.2832 27.8684 38.2938 27.9455 38.3228C28.0859 38.3757 28.1314 38.5349 28.1314 38.685V44.6916C28.1314 44.8169 28.1098 44.9536 28.0091 45.0282C27.896 45.1118 27.772 45.089 27.6725 45.0303C27.55 44.9581 27.5143 44.807 27.5143 44.6649Z" fill="#2D438D"/>
<path d="M28.9543 44.6649V38.685C28.9543 38.5349 28.9908 38.3629 29.1324 38.3134C29.2187 38.2832 29.3084 38.2938 29.3855 38.3228C29.5259 38.3757 29.5714 38.5349 29.5714 38.685V44.6916C29.5714 44.8169 29.5498 44.9536 29.4491 45.0282C29.336 45.1118 29.212 45.089 29.1125 45.0303C28.99 44.9581 28.9543 44.807 28.9543 44.6649Z" fill="#2D438D"/>
<path d="M30.3943 44.6649V38.685C30.3943 38.5349 30.4308 38.3629 30.5724 38.3134C30.6587 38.2832 30.7484 38.2938 30.8255 38.3228C30.9659 38.3757 31.0114 38.5349 31.0114 38.685V44.6916C31.0114 44.8169 30.9898 44.9536 30.8891 45.0282C30.776 45.1118 30.652 45.089 30.5525 45.0303C30.43 44.9581 30.3943 44.807 30.3943 44.6649Z" fill="#2D438D"/>
<path d="M23.0914 53.4077V47.4278C23.0914 47.2778 23.1279 47.1058 23.2696 47.0562C23.3559 47.0261 23.4456 47.0367 23.5226 47.0657C23.663 47.1185 23.7086 47.2778 23.7086 47.4278V53.4345C23.7086 53.5598 23.687 53.6965 23.5863 53.771C23.4731 53.8547 23.3492 53.8318 23.2496 53.7732C23.1271 53.701 23.0914 53.5499 23.0914 53.4077Z" fill="#2D438D"/>
<path d="M24.4286 53.4077V47.4278C24.4286 47.2778 24.4651 47.1058 24.6067 47.0562C24.693 47.0261 24.7827 47.0367 24.8598 47.0657C25.0002 47.1185 25.0457 47.2778 25.0457 47.4278V53.4345C25.0457 53.5598 25.0241 53.6965 24.9234 53.771C24.8103 53.8547 24.6863 53.8318 24.5868 53.7732C24.4643 53.701 24.4286 53.5499 24.4286 53.4077Z" fill="#2D438D"/>
<path d="M25.9714 53.4077V47.4278C25.9714 47.2778 26.0079 47.1058 26.1496 47.0562C26.2359 47.0261 26.3256 47.0367 26.4026 47.0657C26.543 47.1185 26.5886 47.2778 26.5886 47.4278V53.4345C26.5886 53.5598 26.567 53.6965 26.4663 53.771C26.3531 53.8547 26.2292 53.8318 26.1296 53.7732C26.0071 53.701 25.9714 53.5499 25.9714 53.4077Z" fill="#2D438D"/>
<path d="M27.5143 53.4077V47.4278C27.5143 47.2778 27.5508 47.1058 27.6924 47.0562C27.7787 47.0261 27.8684 47.0367 27.9455 47.0657C28.0859 47.1185 28.1314 47.2778 28.1314 47.4278V53.4345C28.1314 53.5598 28.1098 53.6965 28.0091 53.771C27.896 53.8547 27.772 53.8318 27.6725 53.7732C27.55 53.701 27.5143 53.5499 27.5143 53.4077Z" fill="#2D438D"/>
<path d="M28.9543 53.4077V47.4278C28.9543 47.2778 28.9908 47.1058 29.1324 47.0562C29.2187 47.0261 29.3084 47.0367 29.3855 47.0657C29.5259 47.1185 29.5714 47.2778 29.5714 47.4278V53.4345C29.5714 53.5598 29.5498 53.6965 29.4491 53.771C29.336 53.8547 29.212 53.8318 29.1125 53.7732C28.99 53.701 28.9543 53.5499 28.9543 53.4077Z" fill="#2D438D"/>
<path d="M30.3943 53.4077V47.4278C30.3943 47.2778 30.4308 47.1058 30.5724 47.0562C30.6587 47.0261 30.7484 47.0367 30.8255 47.0657C30.9659 47.1185 31.0114 47.2778 31.0114 47.4278V53.4345C31.0114 53.5598 30.9898 53.6965 30.8891 53.771C30.776 53.8547 30.652 53.8318 30.5525 53.7732C30.43 53.701 30.3943 53.5499 30.3943 53.4077Z" fill="#2D438D"/>
<path d="M21.6 21.5343L20.88 23.7663H22.2171L21.6 21.5343Z" fill="#272D73"/>
<path d="M32.4 21.4828L31.68 23.7663H33.12L32.4 21.4828Z" fill="#272D73"/>
<path d="M31.6286 21.0714H22.32L24.0686 17.6771H29.9314L31.6286 21.0714Z" fill="#272D73"/>
<path d="M33.12 35.42H20.88" stroke="#3E4E87"/>
<path d="M33.12 24.62H20.88" stroke="#3E4E87"/>
<path d="M32.4514 45.3972H21.4971" stroke="#3E4E87"/>
<path d="M32.4514 46.6315H21.4971" stroke="#3E4E87"/>
<path d="M30.5229 25.7257H23.6829V32.5657H30.5229V25.7257Z" stroke="#2D438D" stroke-width="0.5"/>
<path d="M29.9828 29.1457C29.9828 30.7363 28.6934 32.0257 27.1028 32.0257C25.5123 32.0257 24.2228 30.7363 24.2228 29.1457C24.2228 27.5551 25.5123 26.2657 27.1028 26.2657C28.6934 26.2657 29.9828 27.5551 29.9828 29.1457Z" fill="#EAE2D7" stroke="#3E4E87"/>
<path d="M29.7 29.1457C29.7 30.5801 28.5372 31.7429 27.1029 31.7429C25.6685 31.7429 24.5057 30.5801 24.5057 29.1457C24.5057 27.7114 25.6685 26.5486 27.1029 26.5486C28.5372 26.5486 29.7 27.7114 29.7 29.1457Z" stroke="#3E4E87" stroke-width="0.5"/>
<path d="M28.6714 29.1971C28.6714 30.035 27.9922 30.7143 27.1543 30.7143C26.3164 30.7143 25.6371 30.035 25.6371 29.1971C25.6371 28.3593 26.3164 27.68 27.1543 27.68C27.9922 27.68 28.6714 28.3593 28.6714 29.1971Z" stroke="#3E4E87" stroke-width="0.5"/>
<path d="M26.9485 28.7857V27.7057H27.2057V28.7857H26.9485Z" fill="#3E4E87"/>
<path d="M27.0772 29.5571C27.3186 29.5571 27.5143 29.3614 27.5143 29.12C27.5143 28.8786 27.3186 28.6829 27.0772 28.6829C26.8357 28.6829 26.64 28.8786 26.64 29.12C26.64 29.3614 26.8357 29.5571 27.0772 29.5571Z" fill="#3E4E87"/>
<path d="M28.08 29.7629L27.4114 29.4029L27.4629 29.1971L28.08 29.7629Z" fill="#3E4E87"/>
</g>
<defs>
<filter id="filter0_f_1606_78" x="19.5" y="-77" width="127" height="155" filterUnits="userSpaceOnUse" color-interpolation-filters="sRGB">
<feFlood flood-opacity="0" result="BackgroundImageFix"/>
<feBlend mode="normal" in="SourceGraphic" in2="BackgroundImageFix" result="shape"/>
<feGaussianBlur stdDeviation="24.75" result="effect1_foregroundBlur_1606_78"/>
</filter>
<filter id="filter1_f_1606_78" x="-50.5" y="13" width="127" height="155" filterUnits="userSpaceOnUse" color-interpolation-filters="sRGB">
<feFlood flood-opacity="0" result="BackgroundImageFix"/>
<feBlend mode="normal" in="SourceGraphic" in2="BackgroundImageFix" result="shape"/>
<feGaussianBlur stdDeviation="24.75" result="effect1_foregroundBlur_1606_78"/>
</filter>
</defs>
</svg>
