<svg width="22" height="18" viewBox="0 0 22 18" fill="none" xmlns="http://www.w3.org/2000/svg">
<g clip-path="url(#clip0_799_123)">
<path fill-rule="evenodd" clip-rule="evenodd" d="M20.6277 0.887024H1.41522V16.7097H20.6277V0.887024Z" fill="#00C37A"/>
<path fill-rule="evenodd" clip-rule="evenodd" d="M1.74896 0.510315H20.2753C20.6535 0.510315 20.9614 0.848243 20.9614 1.26378V15.9563C20.9614 16.1643 20.808 16.333 20.6183 16.333C20.4287 16.333 20.2753 16.1643 20.2753 15.9563V1.26378H1.74896V15.9563C1.74896 16.1643 1.59551 16.333 1.40586 16.333C1.21624 16.333 1.06279 16.1643 1.06279 15.9563V1.26378C1.06279 0.848243 1.37072 0.510315 1.74896 0.510315Z" fill="#7E5C62"/>
<path fill-rule="evenodd" clip-rule="evenodd" d="M0.367189 17.4632H21.6569C21.8464 17.4632 22 17.2945 22 17.0865V16.333C22 16.125 21.8464 15.9563 21.6569 15.9563H0.367189C0.177727 15.9563 0.0240955 16.125 0.0240955 16.333V17.0865C0.0240955 17.2945 0.177727 17.4632 0.367189 17.4632Z" fill="#E6BE8A"/>
<path fill-rule="evenodd" clip-rule="evenodd" d="M16.1582 15.9563V15.2028C16.1582 14.9948 16.3118 14.8261 16.5013 14.8261H18.5598C18.7492 14.8261 18.9028 14.9948 18.9028 15.2028V15.9563" fill="white"/>
<path fill-rule="evenodd" clip-rule="evenodd" d="M16.8444 9.92863C17.0341 9.92863 17.1875 9.75996 17.1875 9.55189C17.1875 9.34386 17.0341 9.17516 16.8444 9.17516C16.2769 9.17516 15.8152 8.66818 15.8152 8.04497C15.8152 7.42176 16.2769 6.91478 16.8444 6.91478C17.412 6.91478 17.8737 7.42176 17.8737 8.04497C17.8737 8.25302 18.0271 8.42171 18.2167 8.42171C18.4064 8.42171 18.5598 8.25302 18.5598 8.04497C18.5598 7.00637 17.7902 6.16132 16.8444 6.16132C15.8986 6.16132 15.129 7.00637 15.129 8.04497C15.129 9.08359 15.8986 9.92863 16.8444 9.92863Z" fill="white"/>
<path fill-rule="evenodd" clip-rule="evenodd" d="M15.4721 11.4355H18.2167C18.4064 11.4355 18.5598 11.2668 18.5598 11.0588V10.682C18.5598 9.85111 17.9443 9.17511 17.1875 9.17511H16.8444C16.6548 9.17511 16.5013 9.34379 16.5013 9.55184C16.5013 9.75989 16.6548 9.92857 16.8444 9.92857H17.1875C17.5657 9.92857 17.8737 10.2665 17.8737 10.682H15.4721C15.2825 10.682 15.129 10.8507 15.129 11.0588C15.129 11.2668 15.2825 11.4355 15.4721 11.4355Z" fill="white"/>
<path fill-rule="evenodd" clip-rule="evenodd" d="M10.6689 9.92863C10.8585 9.92863 11.012 9.75996 11.012 9.55189C11.012 9.34386 10.8585 9.17516 10.6689 9.17516C10.1013 9.17516 9.63965 8.66818 9.63965 8.04497C9.63965 7.42176 10.1013 6.91478 10.6689 6.91478C11.2364 6.91478 11.6981 7.42176 11.6981 8.04497C11.6981 8.25302 11.8516 8.42171 12.0412 8.42171C12.2308 8.42171 12.3843 8.25302 12.3843 8.04497C12.3843 7.00637 11.6147 6.16132 10.6689 6.16132C9.72304 6.16132 8.95348 7.00637 8.95348 8.04497C8.95348 9.08359 9.72309 9.92863 10.6689 9.92863Z" fill="white"/>
<path fill-rule="evenodd" clip-rule="evenodd" d="M9.29655 11.4355H12.0412C12.2308 11.4355 12.3843 11.2668 12.3843 11.0588V10.682C12.3843 9.85111 11.7688 9.17511 11.012 9.17511H10.6689C10.4792 9.17511 10.3258 9.34379 10.3258 9.55184C10.3258 9.75989 10.4792 9.92857 10.6689 9.92857H11.012C11.3902 9.92857 11.6981 10.2665 11.6981 10.682H9.29655C9.10693 10.682 8.95348 10.8507 8.95348 11.0588C8.95348 11.2668 9.10693 11.4355 9.29655 11.4355Z" fill="white"/>
<path fill-rule="evenodd" clip-rule="evenodd" d="M13.0705 9.17515H14.4428C14.6324 9.17515 14.7859 9.00647 14.7859 8.79842C14.7859 8.59037 14.6324 8.42169 14.4428 8.42169H13.0705C12.8809 8.42169 12.7274 8.59037 12.7274 8.79842C12.7274 9.00647 12.8809 9.17515 13.0705 9.17515Z" fill="white"/>
<path fill-rule="evenodd" clip-rule="evenodd" d="M6.8952 9.92857H8.26752C8.45715 9.92857 8.6106 9.75989 8.6106 9.55184C8.6106 9.34379 8.45715 9.17511 8.26752 9.17511H6.8952C6.70556 9.17511 6.55212 9.34379 6.55212 9.55184C6.55212 9.75989 6.70556 9.92857 6.8952 9.92857Z" fill="white"/>
<path fill-rule="evenodd" clip-rule="evenodd" d="M6.8952 8.79838H8.26752C8.45715 8.79838 8.6106 8.6297 8.6106 8.42165C8.6106 8.2136 8.45715 8.04492 8.26752 8.04492H6.8952C6.70556 8.04492 6.55212 8.2136 6.55212 8.42165C6.55212 8.6297 6.70556 8.79838 6.8952 8.79838Z" fill="white"/>
<path fill-rule="evenodd" clip-rule="evenodd" d="M13.7568 9.9286C13.9464 9.9286 14.0999 9.75992 14.0999 9.55187V8.04494C14.0999 7.83689 13.9464 7.66821 13.7568 7.66821C13.5671 7.66821 13.4137 7.83689 13.4137 8.04494V9.55187C13.4137 9.75992 13.5671 9.9286 13.7568 9.9286Z" fill="white"/>
<path fill-rule="evenodd" clip-rule="evenodd" d="M3.12128 9.92855H5.86593C5.97147 9.92855 6.07131 9.87502 6.13632 9.78362C6.20134 9.69222 6.22445 9.57299 6.19864 9.46042L5.51247 6.44658C5.46659 6.24479 5.28064 6.12137 5.09671 6.17251C4.91277 6.2229 4.80088 6.42746 4.84712 6.62944L5.42641 9.17516H3.12134C2.93169 9.17516 2.77827 9.34384 2.77827 9.55187C2.77827 9.75994 2.93169 9.92855 3.12128 9.92855Z" fill="white"/>
<path fill-rule="evenodd" clip-rule="evenodd" d="M3.80731 11.4355C3.99695 11.4355 4.15039 11.2668 4.15039 11.0588V7.66817C4.15039 7.46012 3.99695 7.29144 3.80731 7.29144C3.61767 7.29144 3.46423 7.46012 3.46423 7.66817V11.0588C3.46423 11.2668 3.61772 11.4355 3.80731 11.4355Z" fill="white"/>
<path fill-rule="evenodd" clip-rule="evenodd" d="M22 16.7098V17.0865C22 17.2946 21.8464 17.4632 21.6569 17.4632H0.367189C0.177727 17.4632 0.0240955 17.2946 0.0240955 17.0865V16.7098H22Z" fill="#C9A07C"/>
</g>
<defs>
<clipPath id="clip0_799_123">
<rect width="22" height="17" fill="white" transform="matrix(-1 0 0 1 22 0.5)"/>
</clipPath>
</defs>
</svg>
