<svg width="22" height="18" viewBox="0 0 19 16" fill="none" xmlns="http://www.w3.org/2000/svg">
<g clip-path="url(#clip0_799_139)">
<path fill-rule="evenodd" clip-rule="evenodd" d="M10.1097 9.94688C10.2549 9.44949 10.371 8.8899 10.4291 8.23705C10.5162 7.14896 5.60972 7.42876 3.22908 7.42876C0.848431 7.42876 1.80649 8.14378 1.80649 9.82254C1.80649 11.5013 3.72263 12.8692 6.10328 12.8692C6.88713 12.8692 7.58391 12.7137 8.16456 12.4029C8.28069 12.9935 9.0065 13.149 9.70328 13.149C10.4581 13.149 9.61617 12.5272 9.61617 11.8122C9.6452 11.3769 9.96456 10.5376 10.1097 9.94688Z" fill="#FF9D00"/>
<path fill-rule="evenodd" clip-rule="evenodd" d="M9.47099 10.0091C9.64519 9.51168 9.73229 8.95209 9.79035 8.29924C9.87745 7.21116 5.58067 7.42878 3.20002 7.42878C0.819378 7.42878 1.77744 8.1438 1.77744 9.82256C1.77744 11.5013 3.69357 12.8692 6.07422 12.8692C6.85808 12.8692 7.55486 12.7138 8.13551 12.4029C8.25164 12.9935 8.97745 13.149 9.67422 13.149C10.429 13.149 9.58711 12.5272 9.58711 11.8122C9.64518 11.377 9.32583 10.5687 9.47099 10.0091Z" fill="#FF8500"/>
<path fill-rule="evenodd" clip-rule="evenodd" d="M14.3773 7.42878C14.3773 7.58422 14.2612 7.70858 14.116 7.70858C13.9709 7.70858 13.8547 7.58422 13.8547 7.42878V5.99873C13.8547 5.84329 13.9709 5.71893 14.116 5.71893C14.2612 5.71893 14.3773 5.84329 14.3773 5.99873V7.42878Z" fill="#FF8500"/>
<path fill-rule="evenodd" clip-rule="evenodd" d="M3.57752 10.8795C3.57752 11.8122 3.02592 12.5894 2.3872 12.5894H1.83559C1.16784 12.5894 0.645264 11.8122 0.645264 10.8795C0.645264 9.94688 1.19688 9.16968 1.83559 9.16968H2.35817C3.02592 9.16968 3.57752 9.94688 3.57752 10.8795Z" fill="#FF8500"/>
<path fill-rule="evenodd" clip-rule="evenodd" d="M18.3838 13.2422C18.3838 14.4547 17.4548 15.4495 16.3225 15.4495C15.1903 15.4495 14.2612 14.4547 14.2612 13.2422C14.2612 12.0298 15.1903 11.035 16.3225 11.035C17.4838 11.035 18.3838 12.0298 18.3838 13.2422Z" fill="#203547"/>
<path fill-rule="evenodd" clip-rule="evenodd" d="M17.8031 11.6878C18.616 12.5583 18.616 13.9572 17.8031 14.7966C16.9902 15.6671 15.6838 15.6671 14.8999 14.7966" fill="#122130"/>
<path fill-rule="evenodd" clip-rule="evenodd" d="M16.3226 14.6412C17.0441 14.6412 17.629 14.0148 17.629 13.2422C17.629 12.4696 17.0441 11.8433 16.3226 11.8433C15.601 11.8433 15.0161 12.4696 15.0161 13.2422C15.0161 14.0148 15.601 14.6412 16.3226 14.6412Z" fill="#FFA300"/>
<path fill-rule="evenodd" clip-rule="evenodd" d="M17.2516 12.2785C17.7452 12.807 17.7452 13.7086 17.2516 14.237C16.7581 14.7655 15.9162 14.7655 15.4226 14.237" fill="#FF8500"/>
<path fill-rule="evenodd" clip-rule="evenodd" d="M16.3227 14.4547C16.948 14.4547 17.455 13.9118 17.455 13.2422C17.455 12.5726 16.948 12.0298 16.3227 12.0298C15.6974 12.0298 15.1904 12.5726 15.1904 13.2422C15.1904 13.9118 15.6974 14.4547 16.3227 14.4547Z" fill="#CED8DD"/>
<path fill-rule="evenodd" clip-rule="evenodd" d="M17.1356 12.4028C17.5711 12.8692 17.5711 13.6464 17.1356 14.1127C16.7001 14.579 15.9743 14.579 15.5388 14.1127" fill="#B2BBC1"/>
<path opacity="0.2" fill-rule="evenodd" clip-rule="evenodd" d="M16.8743 13.2422C16.8743 13.5531 16.642 13.8951 16.3517 13.8951C16.0614 13.8951 15.8291 13.5531 15.8291 13.2422C15.8291 12.9313 16.0614 12.6826 16.3517 12.6826C16.613 12.6826 16.8743 12.9313 16.8743 13.2422Z" fill="#888F91"/>
<path fill-rule="evenodd" clip-rule="evenodd" d="M16.3226 13.8018C16.6112 13.8018 16.8452 13.5513 16.8452 13.2422C16.8452 12.9332 16.6112 12.6826 16.3226 12.6826C16.034 12.6826 15.8 12.9332 15.8 13.2422C15.8 13.5513 16.034 13.8018 16.3226 13.8018Z" fill="#E7EFF2"/>
<path fill-rule="evenodd" clip-rule="evenodd" d="M16.3225 12.6826C16.6128 12.6826 16.8451 12.9313 16.8451 13.2422C16.8451 13.5531 16.6128 13.8018 16.3225 13.8018" fill="#DAE6EA"/>
<path fill-rule="evenodd" clip-rule="evenodd" d="M16.3227 12.0298C16.2646 12.0298 16.2065 12.0298 16.1775 12.0298C16.2065 12.2163 16.2646 12.3407 16.3227 12.3407C16.3807 12.3407 16.4678 12.2163 16.4678 12.0298C16.4388 12.0298 16.3807 12.0298 16.3227 12.0298Z" fill="#666E70"/>
<path fill-rule="evenodd" clip-rule="evenodd" d="M16.3225 12.3407C16.3806 12.3407 16.4677 12.2163 16.4677 12.0298C16.4096 12.0298 16.3806 12.0298 16.3225 12.0298" fill="#535A5B"/>
<path fill-rule="evenodd" clip-rule="evenodd" d="M16.1775 14.4547C16.2646 14.4547 16.3807 14.4547 16.4678 14.4547C16.4388 14.2682 16.3807 14.1438 16.3227 14.1438C16.2646 14.1438 16.2065 14.2682 16.1775 14.4547Z" fill="#666E70"/>
<path fill-rule="evenodd" clip-rule="evenodd" d="M16.4967 14.4547C16.4677 14.2682 16.4096 14.1438 16.3516 14.1438L16.4967 14.4547Z" fill="#535A5B"/>
<path fill-rule="evenodd" clip-rule="evenodd" d="M15.4226 12.5272C15.5678 12.6205 15.6839 12.6826 15.742 12.6205C15.8 12.5583 15.742 12.4339 15.6549 12.2785C15.5678 12.3407 15.4807 12.4339 15.4226 12.5272Z" fill="#666E70"/>
<path fill-rule="evenodd" clip-rule="evenodd" d="M15.7419 12.6205C15.7999 12.5583 15.7419 12.4339 15.6548 12.2785L15.7419 12.6205Z" fill="#535A5B"/>
<path fill-rule="evenodd" clip-rule="evenodd" d="M16.5259 13.0868C16.613 13.2111 16.584 13.3666 16.4678 13.4598C16.3517 13.5531 16.2065 13.522 16.1194 13.3977L15.0162 11.8122C14.9291 11.6878 14.9582 11.5324 15.0743 11.4391C15.1904 11.3459 15.3356 11.3769 15.4227 11.5013L16.5259 13.0868Z" fill="#B2BBC1"/>
<path fill-rule="evenodd" clip-rule="evenodd" d="M17.2226 13.9883C17.1065 13.8951 16.9613 13.8329 16.9323 13.8951C16.8742 13.9573 16.9323 14.0816 17.0194 14.206C17.0484 14.1749 17.1065 14.1438 17.1355 14.1127C17.1646 14.0816 17.1936 14.0194 17.2226 13.9883Z" fill="#666E70"/>
<path fill-rule="evenodd" clip-rule="evenodd" d="M17.1356 14.1127C17.1646 14.0816 17.1937 14.0194 17.2227 13.9883C17.1066 13.8951 16.9614 13.8329 16.9324 13.8951" fill="#535A5B"/>
<path fill-rule="evenodd" clip-rule="evenodd" d="M15.2193 13.3977C15.3935 13.3666 15.5096 13.3044 15.5096 13.2422C15.5096 13.1801 15.3935 13.0868 15.2193 13.0868C15.2193 13.149 15.2193 13.1801 15.2193 13.2422C15.1903 13.3044 15.1903 13.3666 15.2193 13.3977Z" fill="#666E70"/>
<path fill-rule="evenodd" clip-rule="evenodd" d="M15.4808 13.2422C15.4808 13.1801 15.3646 13.0868 15.1904 13.0868C15.1904 13.149 15.1904 13.1801 15.1904 13.2422" fill="#535A5B"/>
<path fill-rule="evenodd" clip-rule="evenodd" d="M17.1646 13.2422C17.1646 13.3044 17.2807 13.3666 17.4549 13.3977C17.4549 13.3044 17.4549 13.1801 17.4549 13.0868C17.2807 13.1179 17.1646 13.1801 17.1646 13.2422Z" fill="#666E70"/>
<path fill-rule="evenodd" clip-rule="evenodd" d="M17.4549 13.0868C17.2807 13.1179 17.1646 13.1801 17.1646 13.2422L17.4549 13.0868Z" fill="#535A5B"/>
<path fill-rule="evenodd" clip-rule="evenodd" d="M15.4226 13.9883C15.4807 14.0816 15.5678 14.1438 15.6258 14.206C15.7129 14.0816 15.771 13.9262 15.7129 13.864C15.6839 13.8329 15.5678 13.864 15.4226 13.9883Z" fill="#666E70"/>
<path fill-rule="evenodd" clip-rule="evenodd" d="M15.6548 14.206C15.7419 14.0816 15.7999 13.9262 15.7419 13.864L15.6548 14.206Z" fill="#535A5B"/>
<path fill-rule="evenodd" clip-rule="evenodd" d="M17.0194 12.2785C16.9323 12.4029 16.8742 12.5583 16.9323 12.6205C16.9904 12.6826 17.1065 12.6205 17.2517 12.5272C17.1646 12.4339 17.1065 12.3407 17.0194 12.2785Z" fill="#666E70"/>
<path fill-rule="evenodd" clip-rule="evenodd" d="M17.0194 12.2785C16.9323 12.4029 16.8742 12.5583 16.9323 12.6205L17.0194 12.2785Z" fill="#535A5B"/>
<path fill-rule="evenodd" clip-rule="evenodd" d="M7.11923 13.1179C7.11923 13.1801 7.06117 13.2422 7.0031 13.2422H1.48698C1.42891 13.2422 1.37085 13.1801 1.37085 13.1179C1.37085 13.0557 1.42891 12.9935 1.48698 12.9935H7.03213C7.0902 12.9935 7.11923 13.0557 7.11923 13.1179Z" fill="black"/>
<path fill-rule="evenodd" clip-rule="evenodd" d="M1.83545 13.0246C1.83545 11.5946 2.90964 10.4132 4.27416 10.4132C5.60964 10.4132 6.71286 11.5635 6.71286 13.0246" fill="black"/>
<path fill-rule="evenodd" clip-rule="evenodd" d="M6.77086 13.0246H6.56762C6.56762 11.6567 5.52246 10.5376 4.24505 10.5376C2.96763 10.5376 1.92246 11.6567 1.92246 13.0246H1.71924C1.71924 11.5324 2.8515 10.3199 4.24505 10.3199C5.63859 10.3199 6.77086 11.5324 6.77086 13.0246Z" fill="#8E8E8E"/>
<path fill-rule="evenodd" clip-rule="evenodd" d="M4.24504 15.4495C5.4476 15.4495 6.42247 14.4056 6.42247 13.1179C6.42247 11.8302 5.4476 10.7863 4.24504 10.7863C3.04249 10.7863 2.06763 11.8302 2.06763 13.1179C2.06763 14.4056 3.04249 15.4495 4.24504 15.4495Z" fill="#203547"/>
<path fill-rule="evenodd" clip-rule="evenodd" d="M5.78393 11.4702C6.62587 12.3718 6.62587 13.864 5.78393 14.7966C4.94201 15.6982 3.54846 15.6982 2.67749 14.7966" fill="#122130"/>
<path fill-rule="evenodd" clip-rule="evenodd" d="M4.24513 14.579C4.99873 14.579 5.60965 13.9249 5.60965 13.1179C5.60965 12.3109 4.99873 11.6567 4.24513 11.6567C3.49153 11.6567 2.88062 12.3109 2.88062 13.1179C2.88062 13.9249 3.49153 14.579 4.24513 14.579Z" fill="#FFA300"/>
<path fill-rule="evenodd" clip-rule="evenodd" d="M5.23227 12.0609C5.78389 12.6515 5.78389 13.5842 5.23227 14.1437C4.70969 14.7344 3.80969 14.7344 3.28711 14.1437" fill="#FF8500"/>
<path fill-rule="evenodd" clip-rule="evenodd" d="M4.24525 14.3925C4.90266 14.3925 5.43558 13.8218 5.43558 13.1179C5.43558 12.4139 4.90266 11.8433 4.24525 11.8433C3.58786 11.8433 3.05493 12.4139 3.05493 13.1179C3.05493 13.8218 3.58786 14.3925 4.24525 14.3925Z" fill="#CED8DD"/>
<path fill-rule="evenodd" clip-rule="evenodd" d="M5.08717 12.2163C5.55168 12.7137 5.55168 13.522 5.08717 14.0505C4.62265 14.5479 3.86782 14.5479 3.37427 14.0505" fill="#B2BBC1"/>
<path opacity="0.2" fill-rule="evenodd" clip-rule="evenodd" d="M4.79683 13.1179C4.79683 13.4599 4.53554 13.8018 4.24522 13.8018C3.92586 13.8018 3.6936 13.4288 3.6936 13.1179C3.6936 12.7759 3.95489 12.5272 4.24522 12.5272C4.56457 12.5272 4.79683 12.7759 4.79683 13.1179Z" fill="#888F91"/>
<path fill-rule="evenodd" clip-rule="evenodd" d="M4.79683 13.1179C4.79683 13.4599 4.53554 13.7086 4.24522 13.7086C3.92586 13.7086 3.6936 13.4288 3.6936 13.1179C3.6936 12.7759 3.95489 12.5272 4.24522 12.5272C4.56457 12.5272 4.79683 12.7759 4.79683 13.1179Z" fill="#E7EFF2"/>
<path fill-rule="evenodd" clip-rule="evenodd" d="M4.24512 12.5272C4.56447 12.5272 4.79673 12.807 4.79673 13.1179C4.79673 13.4599 4.53544 13.7086 4.24512 13.7086" fill="#DAE6EA"/>
<path fill-rule="evenodd" clip-rule="evenodd" d="M4.24524 11.8122C4.18717 11.8122 4.12911 11.8122 4.07104 11.8122C4.10008 11.9987 4.15814 12.1231 4.24524 12.1231C4.33234 12.1231 4.3904 11.9987 4.41943 11.8122C4.36137 11.8433 4.3033 11.8122 4.24524 11.8122Z" fill="#666E70"/>
<path fill-rule="evenodd" clip-rule="evenodd" d="M4.24512 12.1541C4.33221 12.1541 4.39028 12.0298 4.41931 11.8433C4.36125 11.8433 4.30318 11.8433 4.24512 11.8433" fill="#535A5B"/>
<path fill-rule="evenodd" clip-rule="evenodd" d="M4.1001 14.3925C4.21623 14.3925 4.30332 14.3925 4.41945 14.3925C4.39042 14.206 4.33236 14.0816 4.24526 14.0816C4.15816 14.0816 4.1001 14.206 4.1001 14.3925Z" fill="#666E70"/>
<path fill-rule="evenodd" clip-rule="evenodd" d="M4.41931 14.3925C4.39028 14.206 4.33221 14.0816 4.24512 14.0816L4.41931 14.3925Z" fill="#535A5B"/>
<path fill-rule="evenodd" clip-rule="evenodd" d="M3.28711 12.3407C3.43227 12.465 3.5484 12.4961 3.60647 12.4339C3.66453 12.3718 3.60647 12.2474 3.51937 12.092C3.43227 12.1542 3.34517 12.2474 3.28711 12.3407Z" fill="#666E70"/>
<path fill-rule="evenodd" clip-rule="evenodd" d="M3.60638 12.4339C3.66445 12.3718 3.60638 12.2474 3.51929 12.092L3.60638 12.4339Z" fill="#535A5B"/>
<path fill-rule="evenodd" clip-rule="evenodd" d="M5.20332 13.8951C5.05816 13.7708 4.94203 13.7397 4.88397 13.8018C4.8259 13.864 4.88397 13.9884 4.97107 14.1438C5.0001 14.1127 5.05816 14.0816 5.08719 14.0195C5.14526 13.9884 5.17429 13.9262 5.20332 13.8951Z" fill="#666E70"/>
<path fill-rule="evenodd" clip-rule="evenodd" d="M5.08701 14.0195C5.11605 13.9884 5.14508 13.9262 5.20314 13.8951C5.05798 13.7708 4.94185 13.7397 4.88379 13.8018" fill="#535A5B"/>
<path fill-rule="evenodd" clip-rule="evenodd" d="M3.05493 13.2733C3.22913 13.2422 3.34525 13.1801 3.34525 13.0868C3.34525 12.9935 3.22913 12.9314 3.05493 12.9003C3.05493 12.9624 3.05493 13.0246 3.05493 13.0868C3.05493 13.149 3.05493 13.2422 3.05493 13.2733Z" fill="#666E70"/>
<path fill-rule="evenodd" clip-rule="evenodd" d="M3.34525 13.1179C3.34525 13.0246 3.22913 12.9624 3.05493 12.9313C3.05493 12.9935 3.05493 13.0557 3.05493 13.1179" fill="#535A5B"/>
<path fill-rule="evenodd" clip-rule="evenodd" d="M5.14526 13.1179C5.14526 13.2112 5.26139 13.2733 5.43559 13.3044C5.46462 13.1801 5.46462 13.0868 5.43559 12.9625C5.26139 12.9625 5.14526 13.0246 5.14526 13.1179Z" fill="#666E70"/>
<path fill-rule="evenodd" clip-rule="evenodd" d="M5.43559 12.9313C5.26139 12.9624 5.14526 13.0246 5.14526 13.1179L5.43559 12.9313Z" fill="#535A5B"/>
<path fill-rule="evenodd" clip-rule="evenodd" d="M3.28711 13.8951C3.34517 13.9884 3.43227 14.0816 3.51937 14.1438C3.6355 13.9884 3.66453 13.864 3.60647 13.8018C3.5484 13.7397 3.43227 13.7708 3.28711 13.8951Z" fill="#666E70"/>
<path fill-rule="evenodd" clip-rule="evenodd" d="M3.51929 14.1438C3.63542 13.9883 3.66445 13.864 3.60638 13.8018L3.51929 14.1438Z" fill="#535A5B"/>
<path fill-rule="evenodd" clip-rule="evenodd" d="M4.97087 12.092C4.85474 12.2474 4.8257 12.3718 4.88377 12.4339C4.94183 12.4961 5.05796 12.4339 5.20312 12.3407C5.14506 12.2474 5.05796 12.1542 4.97087 12.092Z" fill="#666E70"/>
<path fill-rule="evenodd" clip-rule="evenodd" d="M4.97087 12.092C4.85474 12.2474 4.8257 12.3718 4.88377 12.4339L4.97087 12.092Z" fill="#535A5B"/>
<path fill-rule="evenodd" clip-rule="evenodd" d="M18.4999 12.3096C18.2386 10.8795 15.7999 9.3562 14.4064 9.3562C12.9838 9.3562 13.9419 10.8795 13.6806 12.3096H18.4999Z" fill="#FF9D00"/>
<path fill-rule="evenodd" clip-rule="evenodd" d="M17.8032 12.3096C17.5419 10.8174 15.9161 9.4184 14.4935 9.4184C13.071 9.4184 13.2452 10.8174 12.9548 12.3096H17.8032Z" fill="#FF8500"/>
<path fill-rule="evenodd" clip-rule="evenodd" d="M9.9644 7.33548C9.9644 7.52201 9.81924 7.67744 9.64505 7.67744H2.03859C1.8644 7.67744 1.71924 7.52201 1.71924 7.33548V5.93651C1.71924 5.74998 1.8644 5.59454 2.03859 5.59454L8.30956 5.93651C8.48376 5.93651 9.9644 5.74998 9.9644 5.93651V7.33548Z" fill="#8C5218"/>
<path fill-rule="evenodd" clip-rule="evenodd" d="M9.9644 7.33548C9.9644 7.52201 9.81924 7.67745 9.64505 7.67745H2.03859C1.8644 7.67745 1.71924 7.52201 1.71924 7.33548L1.9515 6.4961C1.9515 6.30957 2.09666 6.15414 2.27085 6.15414L8.30956 5.96761C8.48376 5.96761 9.9644 5.78108 9.9644 5.96761V7.33548Z" fill="#6B3E15"/>
<path fill-rule="evenodd" clip-rule="evenodd" d="M15.1904 9.79143C15.1904 10.009 13.7679 13.3355 13.5646 13.3355H12.8098C12.6066 13.3355 12.4324 13.1489 12.4324 12.9313L13.1582 8.45464C13.1582 8.23702 13.5646 6.77588 13.7679 6.77588H14.2904C14.4937 6.77588 14.6678 6.96241 14.6678 7.18002L15.1904 9.79143Z" fill="#FF8500"/>
<path fill-rule="evenodd" clip-rule="evenodd" d="M14.2904 6.77588H13.7678C13.7098 6.77588 13.6807 6.83806 13.6227 6.96241C13.6517 7.02458 13.6807 7.08676 13.6807 7.18002L13.2162 12.9313C13.2162 13.1178 12.9549 13.2733 12.7227 13.3044C12.7517 13.3044 12.7807 13.3355 12.8098 13.3355H13.5646C13.7678 13.3355 14.1743 13.1489 14.1743 12.9313L14.6388 7.18002C14.6388 6.96241 14.4936 6.77588 14.2904 6.77588Z" fill="#FF9D00"/>
<path fill-rule="evenodd" clip-rule="evenodd" d="M8.65795 13.0557C8.28052 11.0661 6.01601 9.20081 4.04182 9.20081C2.06762 9.20081 1.05149 11.0661 0.674072 13.0557H8.65795Z" fill="#FFB000"/>
<path fill-rule="evenodd" clip-rule="evenodd" d="M8.65817 13.0557C8.28074 11.0661 6.01623 9.60492 4.04204 9.60492C2.06784 9.60492 1.02268 11.035 0.645264 13.0557H8.65817Z" fill="#FF9D00"/>
<path fill-rule="evenodd" clip-rule="evenodd" d="M13.3323 13.0246C13.3323 13.1801 13.2161 13.3355 13.0419 13.3355H0.790322C0.645161 13.3355 0.5 13.2112 0.5 13.0246V12.9314C0.5 12.7759 0.616129 12.6205 0.790322 12.6205H13.071C13.2161 12.6205 13.3613 12.7448 13.3613 12.9314V13.0246H13.3323Z" fill="#FF9D00"/>
<path fill-rule="evenodd" clip-rule="evenodd" d="M15.1032 3.76034C14.9871 3.72925 14.8419 3.72925 14.6967 3.72925C13.7097 3.72925 12.9258 4.31992 12.9258 5.06603C12.9258 5.81214 13.7097 6.40282 14.6967 6.40282C14.8419 6.40282 14.958 6.40282 15.1032 6.37174V3.76034Z" fill="#FF9D00"/>
<path fill-rule="evenodd" clip-rule="evenodd" d="M15.2485 6.12307C15.2485 6.24741 15.1323 6.37178 15.0162 6.37178C14.9001 6.37178 14.7839 6.24741 14.7839 6.12307V4.00908C14.7839 3.88473 14.9001 3.76038 15.0162 3.76038C15.1323 3.76038 15.2485 3.88473 15.2485 4.00908V6.12307Z" fill="#FF8500"/>
<path fill-rule="evenodd" clip-rule="evenodd" d="M4.70971 10.9728C4.70971 11.035 4.68068 11.066 4.62261 11.066H3.40326C3.34519 11.066 3.31616 11.035 3.31616 10.9728C3.31616 10.9106 3.34519 10.8795 3.40326 10.8795H4.62261C4.65165 10.8795 4.70971 10.9106 4.70971 10.9728Z" fill="#FFB000"/>
<path fill-rule="evenodd" clip-rule="evenodd" d="M4.70971 11.5013C4.70971 11.5635 4.68068 11.5945 4.62261 11.5945H3.40326C3.34519 11.5945 3.31616 11.5635 3.31616 11.5013C3.31616 11.4391 3.34519 11.408 3.40326 11.408H4.62261C4.65165 11.408 4.70971 11.4391 4.70971 11.5013Z" fill="#FFB000"/>
<path fill-rule="evenodd" clip-rule="evenodd" d="M4.70971 12.0298C4.70971 12.092 4.68068 12.1231 4.62261 12.1231H3.40326C3.34519 12.1231 3.31616 12.092 3.31616 12.0298C3.31616 11.9676 3.34519 11.9365 3.40326 11.9365H4.62261C4.65165 11.9365 4.70971 11.9676 4.70971 12.0298Z" fill="#FFB000"/>
<path fill-rule="evenodd" clip-rule="evenodd" d="M12.7225 5.37693C13.0592 5.37693 13.3321 5.08464 13.3321 4.72408C13.3321 4.36352 13.0592 4.07123 12.7225 4.07123C12.3858 4.07123 12.1128 4.36352 12.1128 4.72408C12.1128 5.08464 12.3858 5.37693 12.7225 5.37693Z" fill="#6B3E15"/>
<path fill-rule="evenodd" clip-rule="evenodd" d="M12.4323 5.2215C12.6888 5.2215 12.8968 4.9988 12.8968 4.72409C12.8968 4.44938 12.6888 4.22668 12.4323 4.22668C12.1757 4.22668 11.9678 4.44938 11.9678 4.72409C11.9678 4.9988 12.1757 5.2215 12.4323 5.2215Z" fill="#824C20"/>
<path fill-rule="evenodd" clip-rule="evenodd" d="M13.8259 4.31998C13.7097 4.31998 13.6227 4.22671 13.6227 4.10236V2.88992L12.8678 2.08163C12.7807 1.98837 12.7807 1.86402 12.8678 1.77075C12.9549 1.67749 13.071 1.67749 13.1581 1.77075L13.971 2.64122C14.0001 2.67231 14.0291 2.73448 14.0291 2.79666V4.10236C14.0291 4.22671 13.942 4.31998 13.8259 4.31998Z" fill="#768689"/>
<path fill-rule="evenodd" clip-rule="evenodd" d="M12.3743 0.527222V2.4236C12.7807 2.33033 13.071 1.92619 13.071 1.45986C13.1001 0.993543 12.7807 0.620486 12.3743 0.527222Z" fill="#FF9D00"/>
</g>
<defs>
<clipPath id="clip0_799_139">
<rect width="18" height="15" fill="white" transform="translate(0.5 0.5)"/>
</clipPath>
</defs>
</svg>
