<svg width="35" height="36" viewBox="0 0 35 36" fill="none" xmlns="http://www.w3.org/2000/svg">
<rect y="0.5" width="35" height="35" rx="10" fill="#EFF2FB"/>
<path d="M23.9062 12.3669C23.7733 12.2982 23.644 12.2229 23.5186 12.1413C23.1541 11.9003 22.8199 11.6164 22.5232 11.2956C21.7808 10.4462 21.5035 9.58441 21.4014 8.98107H21.4055C21.3202 8.48027 21.3554 8.15625 21.3608 8.15625H17.9795V21.2312C17.9795 21.4068 17.9795 21.5803 17.9721 21.7517C17.9721 21.773 17.97 21.7927 17.9688 21.8157C17.9688 21.8251 17.9688 21.835 17.9667 21.8448V21.8522C17.9311 22.3213 17.7807 22.7745 17.5288 23.1719C17.2769 23.5692 16.9312 23.8986 16.5222 24.131C16.0958 24.3736 15.6136 24.5008 15.1231 24.5002C13.5477 24.5002 12.2709 23.2155 12.2709 21.6291C12.2709 20.0426 13.5477 18.758 15.1231 18.758C15.4213 18.7577 15.7177 18.8046 16.0013 18.897L16.0054 15.4542C15.1446 15.343 14.2701 15.4114 13.4371 15.6551C12.6041 15.8988 11.8307 16.3124 11.1655 16.87C10.5827 17.3764 10.0928 17.9806 9.71767 18.6554C9.57494 18.9015 9.0364 19.8904 8.97119 21.4954C8.93017 22.4063 9.20375 23.3501 9.33418 23.7401V23.7483C9.41621 23.978 9.73408 24.7618 10.2521 25.4226C10.6698 25.9526 11.1633 26.4182 11.7168 26.8044V26.7962L11.725 26.8044C13.3619 27.9168 15.1769 27.8438 15.1769 27.8438C15.491 27.831 16.5435 27.8438 17.7387 27.2773C19.0643 26.6494 19.819 25.7138 19.819 25.7138C20.3011 25.1548 20.6845 24.5177 20.9527 23.83C21.2586 23.0256 21.3608 22.061 21.3608 21.6754V14.7388C21.4018 14.7635 21.9481 15.1248 21.9481 15.1248C21.9481 15.1248 22.7352 15.6293 23.9632 15.9578C24.8442 16.1916 26.0312 16.2408 26.0312 16.2408V12.8841C25.6153 12.9292 24.7708 12.798 23.9062 12.3669Z" fill="#385AD2"/>
</svg>
