<svg width="120" height="120" viewBox="0 0 120 120" fill="none" xmlns="http://www.w3.org/2000/svg">
<rect width="120" height="120" rx="7" fill="#E7E8E7" fill-opacity="0.4"/>
<path d="M48.914 64.5V63.642C48.316 63.616 47.7527 63.5033 47.224 63.304C46.6953 63.1047 46.2317 62.8273 45.833 62.472C45.443 62.1167 45.1353 61.6963 44.91 61.211C44.6847 60.7257 44.572 60.1883 44.572 59.599C44.572 58.975 44.689 58.4203 44.923 57.935C45.1657 57.441 45.4863 57.0207 45.885 56.674C46.2837 56.3187 46.743 56.0457 47.263 55.855C47.783 55.6643 48.3333 55.5603 48.914 55.543V54.867H49.551V55.543C50.1403 55.5603 50.695 55.673 51.215 55.881C51.7437 56.0803 52.2073 56.3577 52.606 56.713C53.0047 57.0597 53.3167 57.48 53.542 57.974C53.776 58.4593 53.893 59.001 53.893 59.599C53.893 60.2143 53.776 60.769 53.542 61.263C53.308 61.7483 52.983 62.1687 52.567 62.524C52.1597 62.8707 51.696 63.1393 51.176 63.33C50.6647 63.512 50.123 63.616 49.551 63.642V64.5H48.914ZM48.927 63.07V56.115C48.251 56.1323 47.6313 56.2883 47.068 56.583C46.5133 56.869 46.067 57.2677 45.729 57.779C45.3997 58.2903 45.235 58.897 45.235 59.599C45.235 60.1363 45.3347 60.6173 45.534 61.042C45.7333 61.458 46.0063 61.8177 46.353 62.121C46.6997 62.4157 47.094 62.6453 47.536 62.81C47.978 62.966 48.4417 63.0527 48.927 63.07ZM49.538 63.07C50.2227 63.0527 50.8423 62.901 51.397 62.615C51.9517 62.3203 52.3937 61.9173 52.723 61.406C53.061 60.886 53.23 60.2837 53.23 59.599C53.23 59.0617 53.1303 58.585 52.931 58.169C52.7317 57.7443 52.4587 57.3847 52.112 57.09C51.774 56.7867 51.3797 56.5527 50.929 56.388C50.487 56.2147 50.0233 56.1237 49.538 56.115V63.07ZM58.3089 64.63C57.8323 64.63 57.3903 64.539 56.9829 64.357C56.5843 64.175 56.2376 63.9237 55.9429 63.603C55.6483 63.2737 55.4186 62.8967 55.2539 62.472C55.0893 62.0473 55.0069 61.601 55.0069 61.133C55.0069 60.6563 55.0893 60.21 55.2539 59.794C55.4186 59.3693 55.6483 58.9967 55.9429 58.676C56.2463 58.3467 56.5973 58.091 56.9959 57.909C57.4033 57.7183 57.8409 57.623 58.3089 57.623C58.7769 57.623 59.2103 57.7183 59.6089 57.909C60.0076 58.091 60.3586 58.3467 60.6619 58.676C60.9653 58.9967 61.1993 59.3693 61.3639 59.794C61.5286 60.21 61.6109 60.6563 61.6109 61.133C61.6109 61.601 61.5286 62.0473 61.3639 62.472C61.1993 62.8967 60.9653 63.2737 60.6619 63.603C60.3673 63.9237 60.0163 64.175 59.6089 64.357C59.2103 64.539 58.7769 64.63 58.3089 64.63ZM55.6569 61.159C55.6569 61.6877 55.7739 62.173 56.0079 62.615C56.2506 63.0483 56.5713 63.395 56.9699 63.655C57.3686 63.915 57.8106 64.045 58.2959 64.045C58.7813 64.045 59.2233 63.915 59.6219 63.655C60.0293 63.3863 60.3499 63.031 60.5839 62.589C60.8266 62.1383 60.9479 61.6487 60.9479 61.12C60.9479 60.5913 60.8266 60.106 60.5839 59.664C60.3499 59.222 60.0293 58.871 59.6219 58.611C59.2233 58.3423 58.7856 58.208 58.3089 58.208C57.8236 58.208 57.3816 58.3423 56.9829 58.611C56.5843 58.8797 56.2636 59.235 56.0209 59.677C55.7783 60.119 55.6569 60.613 55.6569 61.159ZM64.8973 64.5V58.325H62.4143V57.74H68.0433V58.325H65.5473V64.5H64.8973ZM72.1341 64.63C71.6575 64.63 71.2155 64.539 70.8081 64.357C70.4095 64.175 70.0628 63.9237 69.7681 63.603C69.4735 63.2737 69.2438 62.8967 69.0791 62.472C68.9145 62.0473 68.8321 61.601 68.8321 61.133C68.8321 60.6563 68.9145 60.21 69.0791 59.794C69.2438 59.3693 69.4735 58.9967 69.7681 58.676C70.0715 58.3467 70.4225 58.091 70.8211 57.909C71.2285 57.7183 71.6661 57.623 72.1341 57.623C72.6021 57.623 73.0355 57.7183 73.4341 57.909C73.8328 58.091 74.1838 58.3467 74.4871 58.676C74.7905 58.9967 75.0245 59.3693 75.1891 59.794C75.3538 60.21 75.4361 60.6563 75.4361 61.133C75.4361 61.601 75.3538 62.0473 75.1891 62.472C75.0245 62.8967 74.7905 63.2737 74.4871 63.603C74.1925 63.9237 73.8415 64.175 73.4341 64.357C73.0355 64.539 72.6021 64.63 72.1341 64.63ZM69.4821 61.159C69.4821 61.6877 69.5991 62.173 69.8331 62.615C70.0758 63.0483 70.3965 63.395 70.7951 63.655C71.1938 63.915 71.6358 64.045 72.1211 64.045C72.6065 64.045 73.0485 63.915 73.4471 63.655C73.8545 63.3863 74.1751 63.031 74.4091 62.589C74.6518 62.1383 74.7731 61.6487 74.7731 61.12C74.7731 60.5913 74.6518 60.106 74.4091 59.664C74.1751 59.222 73.8545 58.871 73.4471 58.611C73.0485 58.3423 72.6108 58.208 72.1341 58.208C71.6488 58.208 71.2068 58.3423 70.8081 58.611C70.4095 58.8797 70.0888 59.235 69.8461 59.677C69.6035 60.119 69.4821 60.613 69.4821 61.159Z" fill="#A09E9E"/>
</svg>
